ISO-10303-21;
HEADER;
FILE_DESCRIPTION(('FreeCAD Model'),'2;1');
FILE_NAME('Open CASCADE Shape Model','2026-08-28T17:58:27',('FreeCAD'),(
    'FreeCAD'),'Open CASCADE STEP processor 7.8','FreeCAD','Unknown');
FILE_SCHEMA(('AUTOMOTIVE_DESIGN { 1 0 10303 214 1 1 1 1 }'));
ENDSEC;
DATA;
#1 = APPLICATION_PROTOCOL_DEFINITION('international standard',
  'automotive_design',2000,#2);
#2 = APPLICATION_CONTEXT(
  'core data for automotive mechanical design processes');
#3 = SHAPE_DEFINITION_REPRESENTATION(#4,#10);
#4 = PRODUCT_DEFINITION_SHAPE('','',#5);
#5 = PRODUCT_DEFINITION('design','',#6,#9);
#6 = PRODUCT_DEFINITION_FORMATION('','',#7);
#7 = PRODUCT('Open CASCADE STEP translator 7.8 1',
  'Open CASCADE STEP translator 7.8 1','',(#8));
#8 = PRODUCT_CONTEXT('',#2,'mechanical');
#9 = PRODUCT_DEFINITION_CONTEXT('part definition',#2,'design');
#10 = SHAPE_REPRESENTATION('',(#11,#15,#526,#1037),#1587);
#11 = AXIS2_PLACEMENT_3D('',#12,#13,#14);
#12 = CARTESIAN_POINT('',(0.,0.,0.));
#13 = DIRECTION('',(0.,0.,1.));
#14 = DIRECTION('',(1.,0.,-0.));
#15 = MANIFOLD_SOLID_BREP('',#16);
#16 = CLOSED_SHELL('',(#17,#77,#101,#146,#179,#211,#249,#261,#285,#317,
    #341,#360,#393,#427,#472,#490,#512));
#17 = ADVANCED_FACE('',(#18),#72,.T.);
#18 = FACE_BOUND('',#19,.T.);
#19 = EDGE_LOOP('',(#20,#30,#39,#48,#56,#65));
#20 = ORIENTED_EDGE('',*,*,#21,.F.);
#21 = EDGE_CURVE('',#22,#24,#26,.T.);
#22 = VERTEX_POINT('',#23);
#23 = CARTESIAN_POINT('',(-12.99208234071,10.305782411193,7.25));
#24 = VERTEX_POINT('',#25);
#25 = CARTESIAN_POINT('',(-14.99129398692,11.806832974508,7.25));
#26 = LINE('',#27,#28);
#27 = CARTESIAN_POINT('',(-12.99208234071,10.305782411193,7.25));
#28 = VECTOR('',#29,1.);
#29 = DIRECTION('',(-0.799684658487,0.600420225326,0.));
#30 = ORIENTED_EDGE('',*,*,#31,.T.);
#31 = EDGE_CURVE('',#22,#32,#34,.T.);
#32 = VERTEX_POINT('',#33);
#33 = CARTESIAN_POINT('',(-13.98840450651,17.306306830258,7.25));
#34 = CIRCLE('',#35,5.);
#35 = AXIS2_PLACEMENT_3D('',#36,#37,#38);
#36 = CARTESIAN_POINT('',(-16.99050563314,13.307883537823,7.25));
#37 = DIRECTION('',(0.,-0.,1.));
#38 = DIRECTION('',(0.600420225326,0.799684658487,0.));
#39 = ORIENTED_EDGE('',*,*,#40,.T.);
#40 = EDGE_CURVE('',#32,#41,#43,.T.);
#41 = VERTEX_POINT('',#42);
#42 = CARTESIAN_POINT('',(-20.98892892558,16.309984664452,7.25));
#43 = CIRCLE('',#44,5.);
#44 = AXIS2_PLACEMENT_3D('',#45,#46,#47);
#45 = CARTESIAN_POINT('',(-16.99050563314,13.307883537823,7.25));
#46 = DIRECTION('',(0.,-0.,1.));
#47 = DIRECTION('',(0.600420225326,0.799684658487,0.));
#48 = ORIENTED_EDGE('',*,*,#49,.F.);
#49 = EDGE_CURVE('',#50,#41,#52,.T.);
#50 = VERTEX_POINT('',#51);
#51 = CARTESIAN_POINT('',(-18.98971727936,14.808934101137,7.25));
#52 = LINE('',#53,#54);
#53 = CARTESIAN_POINT('',(-12.99208234071,10.305782411193,7.25));
#54 = VECTOR('',#55,1.);
#55 = DIRECTION('',(-0.799684658487,0.600420225326,0.));
#56 = ORIENTED_EDGE('',*,*,#57,.F.);
#57 = EDGE_CURVE('',#58,#50,#60,.T.);
#58 = VERTEX_POINT('',#59);
#59 = CARTESIAN_POINT('',(-15.48945506983,15.30709518404,7.25));
#60 = CIRCLE('',#61,2.5);
#61 = AXIS2_PLACEMENT_3D('',#62,#63,#64);
#62 = CARTESIAN_POINT('',(-16.99050563314,13.307883537823,7.25));
#63 = DIRECTION('',(0.,-0.,1.));
#64 = DIRECTION('',(0.600420225326,0.799684658487,0.));
#65 = ORIENTED_EDGE('',*,*,#66,.F.);
#66 = EDGE_CURVE('',#24,#58,#67,.T.);
#67 = CIRCLE('',#68,2.5);
#68 = AXIS2_PLACEMENT_3D('',#69,#70,#71);
#69 = CARTESIAN_POINT('',(-16.99050563314,13.307883537823,7.25));
#70 = DIRECTION('',(0.,-0.,1.));
#71 = DIRECTION('',(0.600420225326,0.799684658487,0.));
#72 = PLANE('',#73);
#73 = AXIS2_PLACEMENT_3D('',#74,#75,#76);
#74 = CARTESIAN_POINT('',(-12.99208234071,10.305782411193,7.25));
#75 = DIRECTION('',(0.,0.,1.));
#76 = DIRECTION('',(0.600420225326,0.799684658487,0.));
#77 = ADVANCED_FACE('',(#78),#96,.T.);
#78 = FACE_BOUND('',#79,.T.);
#79 = EDGE_LOOP('',(#80,#87,#88,#95));
#80 = ORIENTED_EDGE('',*,*,#81,.T.);
#81 = EDGE_CURVE('',#41,#22,#82,.T.);
#82 = CIRCLE('',#83,5.);
#83 = AXIS2_PLACEMENT_3D('',#84,#85,#86);
#84 = CARTESIAN_POINT('',(-16.99050563314,13.307883537823,7.25));
#85 = DIRECTION('',(0.,-0.,1.));
#86 = DIRECTION('',(0.600420225326,0.799684658487,0.));
#87 = ORIENTED_EDGE('',*,*,#21,.T.);
#88 = ORIENTED_EDGE('',*,*,#89,.F.);
#89 = EDGE_CURVE('',#50,#24,#90,.T.);
#90 = CIRCLE('',#91,2.5);
#91 = AXIS2_PLACEMENT_3D('',#92,#93,#94);
#92 = CARTESIAN_POINT('',(-16.99050563314,13.307883537823,7.25));
#93 = DIRECTION('',(0.,-0.,1.));
#94 = DIRECTION('',(0.600420225326,0.799684658487,0.));
#95 = ORIENTED_EDGE('',*,*,#49,.T.);
#96 = PLANE('',#97);
#97 = AXIS2_PLACEMENT_3D('',#98,#99,#100);
#98 = CARTESIAN_POINT('',(-16.99050563314,13.307883537823,7.25));
#99 = DIRECTION('',(0.,0.,1.));
#100 = DIRECTION('',(0.600420225326,0.799684658487,0.));
#101 = ADVANCED_FACE('',(#102),#141,.F.);
#102 = FACE_BOUND('',#103,.F.);
#103 = EDGE_LOOP('',(#104,#112,#113,#114,#115,#116,#125,#134));
#104 = ORIENTED_EDGE('',*,*,#105,.T.);
#105 = EDGE_CURVE('',#106,#58,#108,.T.);
#106 = VERTEX_POINT('',#107);
#107 = CARTESIAN_POINT('',(-15.48945506983,15.30709518404,4.75));
#108 = LINE('',#109,#110);
#109 = CARTESIAN_POINT('',(-15.48945506983,15.30709518404,4.75));
#110 = VECTOR('',#111,1.);
#111 = DIRECTION('',(0.,0.,1.));
#112 = ORIENTED_EDGE('',*,*,#66,.F.);
#113 = ORIENTED_EDGE('',*,*,#89,.F.);
#114 = ORIENTED_EDGE('',*,*,#57,.F.);
#115 = ORIENTED_EDGE('',*,*,#105,.F.);
#116 = ORIENTED_EDGE('',*,*,#117,.T.);
#117 = EDGE_CURVE('',#106,#118,#120,.T.);
#118 = VERTEX_POINT('',#119);
#119 = CARTESIAN_POINT('',(-18.98971727936,14.808934101137,4.75));
#120 = CIRCLE('',#121,2.5);
#121 = AXIS2_PLACEMENT_3D('',#122,#123,#124);
#122 = CARTESIAN_POINT('',(-16.99050563314,13.307883537823,4.75));
#123 = DIRECTION('',(0.,-0.,1.));
#124 = DIRECTION('',(0.600420225326,0.799684658487,0.));
#125 = ORIENTED_EDGE('',*,*,#126,.T.);
#126 = EDGE_CURVE('',#118,#127,#129,.T.);
#127 = VERTEX_POINT('',#128);
#128 = CARTESIAN_POINT('',(-14.99129398692,11.806832974508,4.75));
#129 = CIRCLE('',#130,2.5);
#130 = AXIS2_PLACEMENT_3D('',#131,#132,#133);
#131 = CARTESIAN_POINT('',(-16.99050563314,13.307883537823,4.75));
#132 = DIRECTION('',(0.,-0.,1.));
#133 = DIRECTION('',(0.600420225326,0.799684658487,0.));
#134 = ORIENTED_EDGE('',*,*,#135,.T.);
#135 = EDGE_CURVE('',#127,#106,#136,.T.);
#136 = CIRCLE('',#137,2.5);
#137 = AXIS2_PLACEMENT_3D('',#138,#139,#140);
#138 = CARTESIAN_POINT('',(-16.99050563314,13.307883537823,4.75));
#139 = DIRECTION('',(0.,-0.,1.));
#140 = DIRECTION('',(0.600420225326,0.799684658487,0.));
#141 = CYLINDRICAL_SURFACE('',#142,2.5);
#142 = AXIS2_PLACEMENT_3D('',#143,#144,#145);
#143 = CARTESIAN_POINT('',(-16.99050563314,13.307883537823,4.75));
#144 = DIRECTION('',(0.,0.,1.));
#145 = DIRECTION('',(0.600420225326,0.799684658487,0.));
#146 = ADVANCED_FACE('',(#147),#174,.T.);
#147 = FACE_BOUND('',#148,.T.);
#148 = EDGE_LOOP('',(#149,#150,#158,#167,#173));
#149 = ORIENTED_EDGE('',*,*,#31,.F.);
#150 = ORIENTED_EDGE('',*,*,#151,.T.);
#151 = EDGE_CURVE('',#22,#152,#154,.T.);
#152 = VERTEX_POINT('',#153);
#153 = CARTESIAN_POINT('',(17.028928925583,50.290015335548,7.25));
#154 = LINE('',#155,#156);
#155 = CARTESIAN_POINT('',(-12.99208234071,10.305782411193,7.25));
#156 = VECTOR('',#157,1.);
#157 = DIRECTION('',(0.600420225326,0.799684658487,0.));
#158 = ORIENTED_EDGE('',*,*,#159,.F.);
#159 = EDGE_CURVE('',#160,#152,#162,.T.);
#160 = VERTEX_POINT('',#161);
#161 = CARTESIAN_POINT('',(9.032082340712,56.294217588807,7.25));
#162 = CIRCLE('',#163,5.);
#163 = AXIS2_PLACEMENT_3D('',#164,#165,#166);
#164 = CARTESIAN_POINT('',(13.030505633147,53.292116462177,7.25));
#165 = DIRECTION('',(0.,-0.,1.));
#166 = DIRECTION('',(0.600420225326,0.799684658487,0.));
#167 = ORIENTED_EDGE('',*,*,#168,.F.);
#168 = EDGE_CURVE('',#41,#160,#169,.T.);
#169 = LINE('',#170,#171);
#170 = CARTESIAN_POINT('',(-20.98892892558,16.309984664452,7.25));
#171 = VECTOR('',#172,1.);
#172 = DIRECTION('',(0.600420225326,0.799684658487,0.));
#173 = ORIENTED_EDGE('',*,*,#40,.F.);
#174 = PLANE('',#175);
#175 = AXIS2_PLACEMENT_3D('',#176,#177,#178);
#176 = CARTESIAN_POINT('',(-12.99208234071,10.305782411193,7.25));
#177 = DIRECTION('',(0.,0.,1.));
#178 = DIRECTION('',(0.600420225326,0.799684658487,0.));
#179 = ADVANCED_FACE('',(#180),#206,.T.);
#180 = FACE_BOUND('',#181,.T.);
#181 = EDGE_LOOP('',(#182,#183,#191,#200));
#182 = ORIENTED_EDGE('',*,*,#81,.F.);
#183 = ORIENTED_EDGE('',*,*,#184,.F.);
#184 = EDGE_CURVE('',#185,#41,#187,.T.);
#185 = VERTEX_POINT('',#186);
#186 = CARTESIAN_POINT('',(-20.98892892558,16.309984664452,4.75));
#187 = LINE('',#188,#189);
#188 = CARTESIAN_POINT('',(-20.98892892558,16.309984664452,4.75));
#189 = VECTOR('',#190,1.);
#190 = DIRECTION('',(0.,0.,1.));
#191 = ORIENTED_EDGE('',*,*,#192,.T.);
#192 = EDGE_CURVE('',#185,#193,#195,.T.);
#193 = VERTEX_POINT('',#194);
#194 = CARTESIAN_POINT('',(-12.99208234071,10.305782411193,4.75));
#195 = CIRCLE('',#196,5.);
#196 = AXIS2_PLACEMENT_3D('',#197,#198,#199);
#197 = CARTESIAN_POINT('',(-16.99050563314,13.307883537823,4.75));
#198 = DIRECTION('',(0.,-0.,1.));
#199 = DIRECTION('',(0.600420225326,0.799684658487,0.));
#200 = ORIENTED_EDGE('',*,*,#201,.T.);
#201 = EDGE_CURVE('',#193,#22,#202,.T.);
#202 = LINE('',#203,#204);
#203 = CARTESIAN_POINT('',(-12.99208234071,10.305782411193,4.75));
#204 = VECTOR('',#205,1.);
#205 = DIRECTION('',(0.,0.,1.));
#206 = CYLINDRICAL_SURFACE('',#207,5.);
#207 = AXIS2_PLACEMENT_3D('',#208,#209,#210);
#208 = CARTESIAN_POINT('',(-16.99050563314,13.307883537823,4.75));
#209 = DIRECTION('',(0.,0.,1.));
#210 = DIRECTION('',(0.600420225326,0.799684658487,0.));
#211 = ADVANCED_FACE('',(#212),#244,.F.);
#212 = FACE_BOUND('',#213,.F.);
#213 = EDGE_LOOP('',(#214,#220,#229,#236,#242,#243));
#214 = ORIENTED_EDGE('',*,*,#215,.F.);
#215 = EDGE_CURVE('',#193,#127,#216,.T.);
#216 = LINE('',#217,#218);
#217 = CARTESIAN_POINT('',(-12.99208234071,10.305782411193,4.75));
#218 = VECTOR('',#219,1.);
#219 = DIRECTION('',(-0.799684658487,0.600420225326,0.));
#220 = ORIENTED_EDGE('',*,*,#221,.T.);
#221 = EDGE_CURVE('',#193,#222,#224,.T.);
#222 = VERTEX_POINT('',#223);
#223 = CARTESIAN_POINT('',(-13.98840450651,17.306306830258,4.75));
#224 = CIRCLE('',#225,5.);
#225 = AXIS2_PLACEMENT_3D('',#226,#227,#228);
#226 = CARTESIAN_POINT('',(-16.99050563314,13.307883537823,4.75));
#227 = DIRECTION('',(0.,-0.,1.));
#228 = DIRECTION('',(0.600420225326,0.799684658487,0.));
#229 = ORIENTED_EDGE('',*,*,#230,.T.);
#230 = EDGE_CURVE('',#222,#185,#231,.T.);
#231 = CIRCLE('',#232,5.);
#232 = AXIS2_PLACEMENT_3D('',#233,#234,#235);
#233 = CARTESIAN_POINT('',(-16.99050563314,13.307883537823,4.75));
#234 = DIRECTION('',(0.,-0.,1.));
#235 = DIRECTION('',(0.600420225326,0.799684658487,0.));
#236 = ORIENTED_EDGE('',*,*,#237,.F.);
#237 = EDGE_CURVE('',#118,#185,#238,.T.);
#238 = LINE('',#239,#240);
#239 = CARTESIAN_POINT('',(-12.99208234071,10.305782411193,4.75));
#240 = VECTOR('',#241,1.);
#241 = DIRECTION('',(-0.799684658487,0.600420225326,0.));
#242 = ORIENTED_EDGE('',*,*,#117,.F.);
#243 = ORIENTED_EDGE('',*,*,#135,.F.);
#244 = PLANE('',#245);
#245 = AXIS2_PLACEMENT_3D('',#246,#247,#248);
#246 = CARTESIAN_POINT('',(-12.99208234071,10.305782411193,4.75));
#247 = DIRECTION('',(0.,0.,1.));
#248 = DIRECTION('',(0.600420225326,0.799684658487,0.));
#249 = ADVANCED_FACE('',(#250),#256,.F.);
#250 = FACE_BOUND('',#251,.F.);
#251 = EDGE_LOOP('',(#252,#253,#254,#255));
#252 = ORIENTED_EDGE('',*,*,#192,.T.);
#253 = ORIENTED_EDGE('',*,*,#215,.T.);
#254 = ORIENTED_EDGE('',*,*,#126,.F.);
#255 = ORIENTED_EDGE('',*,*,#237,.T.);
#256 = PLANE('',#257);
#257 = AXIS2_PLACEMENT_3D('',#258,#259,#260);
#258 = CARTESIAN_POINT('',(-16.99050563314,13.307883537823,4.75));
#259 = DIRECTION('',(0.,0.,1.));
#260 = DIRECTION('',(0.600420225326,0.799684658487,0.));
#261 = ADVANCED_FACE('',(#262),#280,.T.);
#262 = FACE_BOUND('',#263,.T.);
#263 = EDGE_LOOP('',(#264,#272,#273,#274));
#264 = ORIENTED_EDGE('',*,*,#265,.F.);
#265 = EDGE_CURVE('',#185,#266,#268,.T.);
#266 = VERTEX_POINT('',#267);
#267 = CARTESIAN_POINT('',(9.032082340712,56.294217588807,4.75));
#268 = LINE('',#269,#270);
#269 = CARTESIAN_POINT('',(-20.98892892558,16.309984664452,4.75));
#270 = VECTOR('',#271,1.);
#271 = DIRECTION('',(0.600420225326,0.799684658487,0.));
#272 = ORIENTED_EDGE('',*,*,#184,.T.);
#273 = ORIENTED_EDGE('',*,*,#168,.T.);
#274 = ORIENTED_EDGE('',*,*,#275,.F.);
#275 = EDGE_CURVE('',#266,#160,#276,.T.);
#276 = LINE('',#277,#278);
#277 = CARTESIAN_POINT('',(9.032082340712,56.294217588807,4.75));
#278 = VECTOR('',#279,1.);
#279 = DIRECTION('',(0.,0.,1.));
#280 = PLANE('',#281);
#281 = AXIS2_PLACEMENT_3D('',#282,#283,#284);
#282 = CARTESIAN_POINT('',(-20.98892892558,16.309984664452,4.75));
#283 = DIRECTION('',(-0.799684658487,0.600420225326,0.));
#284 = DIRECTION('',(0.,0.,1.));
#285 = ADVANCED_FACE('',(#286),#312,.T.);
#286 = FACE_BOUND('',#287,.T.);
#287 = EDGE_LOOP('',(#288,#296,#297,#305));
#288 = ORIENTED_EDGE('',*,*,#289,.T.);
#289 = EDGE_CURVE('',#290,#160,#292,.T.);
#290 = VERTEX_POINT('',#291);
#291 = CARTESIAN_POINT('',(11.031293986929,54.793167025492,7.25));
#292 = LINE('',#293,#294);
#293 = CARTESIAN_POINT('',(17.028928925583,50.290015335548,7.25));
#294 = VECTOR('',#295,1.);
#295 = DIRECTION('',(-0.799684658487,0.600420225326,0.));
#296 = ORIENTED_EDGE('',*,*,#159,.T.);
#297 = ORIENTED_EDGE('',*,*,#298,.T.);
#298 = EDGE_CURVE('',#152,#299,#301,.T.);
#299 = VERTEX_POINT('',#300);
#300 = CARTESIAN_POINT('',(15.029717279365,51.791065898863,7.25));
#301 = LINE('',#302,#303);
#302 = CARTESIAN_POINT('',(17.028928925583,50.290015335548,7.25));
#303 = VECTOR('',#304,1.);
#304 = DIRECTION('',(-0.799684658487,0.600420225326,0.));
#305 = ORIENTED_EDGE('',*,*,#306,.F.);
#306 = EDGE_CURVE('',#290,#299,#307,.T.);
#307 = CIRCLE('',#308,2.5);
#308 = AXIS2_PLACEMENT_3D('',#309,#310,#311);
#309 = CARTESIAN_POINT('',(13.030505633147,53.292116462177,7.25));
#310 = DIRECTION('',(0.,-0.,1.));
#311 = DIRECTION('',(0.600420225326,0.799684658487,0.));
#312 = PLANE('',#313);
#313 = AXIS2_PLACEMENT_3D('',#314,#315,#316);
#314 = CARTESIAN_POINT('',(-12.99208234071,10.305782411193,7.25));
#315 = DIRECTION('',(0.,0.,1.));
#316 = DIRECTION('',(0.600420225326,0.799684658487,0.));
#317 = ADVANCED_FACE('',(#318),#336,.F.);
#318 = FACE_BOUND('',#319,.F.);
#319 = EDGE_LOOP('',(#320,#328,#329,#330));
#320 = ORIENTED_EDGE('',*,*,#321,.F.);
#321 = EDGE_CURVE('',#193,#322,#324,.T.);
#322 = VERTEX_POINT('',#323);
#323 = CARTESIAN_POINT('',(17.028928925583,50.290015335548,4.75));
#324 = LINE('',#325,#326);
#325 = CARTESIAN_POINT('',(-12.99208234071,10.305782411193,4.75));
#326 = VECTOR('',#327,1.);
#327 = DIRECTION('',(0.600420225326,0.799684658487,0.));
#328 = ORIENTED_EDGE('',*,*,#201,.T.);
#329 = ORIENTED_EDGE('',*,*,#151,.T.);
#330 = ORIENTED_EDGE('',*,*,#331,.F.);
#331 = EDGE_CURVE('',#322,#152,#332,.T.);
#332 = LINE('',#333,#334);
#333 = CARTESIAN_POINT('',(17.028928925583,50.290015335548,4.75));
#334 = VECTOR('',#335,1.);
#335 = DIRECTION('',(0.,0.,1.));
#336 = PLANE('',#337);
#337 = AXIS2_PLACEMENT_3D('',#338,#339,#340);
#338 = CARTESIAN_POINT('',(-12.99208234071,10.305782411193,4.75));
#339 = DIRECTION('',(-0.799684658487,0.600420225326,0.));
#340 = DIRECTION('',(0.,0.,1.));
#341 = ADVANCED_FACE('',(#342),#355,.F.);
#342 = FACE_BOUND('',#343,.F.);
#343 = EDGE_LOOP('',(#344,#345,#346,#353,#354));
#344 = ORIENTED_EDGE('',*,*,#221,.F.);
#345 = ORIENTED_EDGE('',*,*,#321,.T.);
#346 = ORIENTED_EDGE('',*,*,#347,.F.);
#347 = EDGE_CURVE('',#266,#322,#348,.T.);
#348 = CIRCLE('',#349,5.);
#349 = AXIS2_PLACEMENT_3D('',#350,#351,#352);
#350 = CARTESIAN_POINT('',(13.030505633147,53.292116462177,4.75));
#351 = DIRECTION('',(0.,-0.,1.));
#352 = DIRECTION('',(0.600420225326,0.799684658487,0.));
#353 = ORIENTED_EDGE('',*,*,#265,.F.);
#354 = ORIENTED_EDGE('',*,*,#230,.F.);
#355 = PLANE('',#356);
#356 = AXIS2_PLACEMENT_3D('',#357,#358,#359);
#357 = CARTESIAN_POINT('',(-12.99208234071,10.305782411193,4.75));
#358 = DIRECTION('',(0.,0.,1.));
#359 = DIRECTION('',(0.600420225326,0.799684658487,0.));
#360 = ADVANCED_FACE('',(#361),#388,.T.);
#361 = FACE_BOUND('',#362,.T.);
#362 = EDGE_LOOP('',(#363,#372,#380,#387));
#363 = ORIENTED_EDGE('',*,*,#364,.F.);
#364 = EDGE_CURVE('',#365,#160,#367,.T.);
#365 = VERTEX_POINT('',#366);
#366 = CARTESIAN_POINT('',(16.032606759777,57.290539754613,7.25));
#367 = CIRCLE('',#368,5.);
#368 = AXIS2_PLACEMENT_3D('',#369,#370,#371);
#369 = CARTESIAN_POINT('',(13.030505633147,53.292116462177,7.25));
#370 = DIRECTION('',(0.,-0.,1.));
#371 = DIRECTION('',(0.600420225326,0.799684658487,0.));
#372 = ORIENTED_EDGE('',*,*,#373,.F.);
#373 = EDGE_CURVE('',#374,#365,#376,.T.);
#374 = VERTEX_POINT('',#375);
#375 = CARTESIAN_POINT('',(16.032606759777,57.290539754613,4.75));
#376 = LINE('',#377,#378);
#377 = CARTESIAN_POINT('',(16.032606759777,57.290539754613,4.75));
#378 = VECTOR('',#379,1.);
#379 = DIRECTION('',(0.,0.,1.));
#380 = ORIENTED_EDGE('',*,*,#381,.T.);
#381 = EDGE_CURVE('',#374,#266,#382,.T.);
#382 = CIRCLE('',#383,5.);
#383 = AXIS2_PLACEMENT_3D('',#384,#385,#386);
#384 = CARTESIAN_POINT('',(13.030505633147,53.292116462177,4.75));
#385 = DIRECTION('',(0.,-0.,1.));
#386 = DIRECTION('',(0.600420225326,0.799684658487,0.));
#387 = ORIENTED_EDGE('',*,*,#275,.T.);
#388 = CYLINDRICAL_SURFACE('',#389,5.);
#389 = AXIS2_PLACEMENT_3D('',#390,#391,#392);
#390 = CARTESIAN_POINT('',(13.030505633147,53.292116462177,4.75));
#391 = DIRECTION('',(0.,0.,1.));
#392 = DIRECTION('',(0.600420225326,0.799684658487,0.));
#393 = ADVANCED_FACE('',(#394),#422,.T.);
#394 = FACE_BOUND('',#395,.T.);
#395 = EDGE_LOOP('',(#396,#397,#404,#405,#406,#415));
#396 = ORIENTED_EDGE('',*,*,#298,.F.);
#397 = ORIENTED_EDGE('',*,*,#398,.T.);
#398 = EDGE_CURVE('',#152,#365,#399,.T.);
#399 = CIRCLE('',#400,5.);
#400 = AXIS2_PLACEMENT_3D('',#401,#402,#403);
#401 = CARTESIAN_POINT('',(13.030505633147,53.292116462177,7.25));
#402 = DIRECTION('',(0.,-0.,1.));
#403 = DIRECTION('',(0.600420225326,0.799684658487,0.));
#404 = ORIENTED_EDGE('',*,*,#364,.T.);
#405 = ORIENTED_EDGE('',*,*,#289,.F.);
#406 = ORIENTED_EDGE('',*,*,#407,.F.);
#407 = EDGE_CURVE('',#408,#290,#410,.T.);
#408 = VERTEX_POINT('',#409);
#409 = CARTESIAN_POINT('',(14.531556196462,55.291328108395,7.25));
#410 = CIRCLE('',#411,2.5);
#411 = AXIS2_PLACEMENT_3D('',#412,#413,#414);
#412 = CARTESIAN_POINT('',(13.030505633147,53.292116462177,7.25));
#413 = DIRECTION('',(0.,-0.,1.));
#414 = DIRECTION('',(0.600420225326,0.799684658487,0.));
#415 = ORIENTED_EDGE('',*,*,#416,.F.);
#416 = EDGE_CURVE('',#299,#408,#417,.T.);
#417 = CIRCLE('',#418,2.5);
#418 = AXIS2_PLACEMENT_3D('',#419,#420,#421);
#419 = CARTESIAN_POINT('',(13.030505633147,53.292116462177,7.25));
#420 = DIRECTION('',(0.,-0.,1.));
#421 = DIRECTION('',(0.600420225326,0.799684658487,0.));
#422 = PLANE('',#423);
#423 = AXIS2_PLACEMENT_3D('',#424,#425,#426);
#424 = CARTESIAN_POINT('',(13.030505633147,53.292116462177,7.25));
#425 = DIRECTION('',(0.,0.,1.));
#426 = DIRECTION('',(0.600420225326,0.799684658487,0.));
#427 = ADVANCED_FACE('',(#428),#467,.F.);
#428 = FACE_BOUND('',#429,.F.);
#429 = EDGE_LOOP('',(#430,#438,#439,#440,#441,#442,#451,#460));
#430 = ORIENTED_EDGE('',*,*,#431,.T.);
#431 = EDGE_CURVE('',#432,#408,#434,.T.);
#432 = VERTEX_POINT('',#433);
#433 = CARTESIAN_POINT('',(14.531556196462,55.291328108395,4.75));
#434 = LINE('',#435,#436);
#435 = CARTESIAN_POINT('',(14.531556196462,55.291328108395,4.75));
#436 = VECTOR('',#437,1.);
#437 = DIRECTION('',(0.,0.,1.));
#438 = ORIENTED_EDGE('',*,*,#416,.F.);
#439 = ORIENTED_EDGE('',*,*,#306,.F.);
#440 = ORIENTED_EDGE('',*,*,#407,.F.);
#441 = ORIENTED_EDGE('',*,*,#431,.F.);
#442 = ORIENTED_EDGE('',*,*,#443,.T.);
#443 = EDGE_CURVE('',#432,#444,#446,.T.);
#444 = VERTEX_POINT('',#445);
#445 = CARTESIAN_POINT('',(11.031293986929,54.793167025492,4.75));
#446 = CIRCLE('',#447,2.5);
#447 = AXIS2_PLACEMENT_3D('',#448,#449,#450);
#448 = CARTESIAN_POINT('',(13.030505633147,53.292116462177,4.75));
#449 = DIRECTION('',(0.,-0.,1.));
#450 = DIRECTION('',(0.600420225326,0.799684658487,0.));
#451 = ORIENTED_EDGE('',*,*,#452,.T.);
#452 = EDGE_CURVE('',#444,#453,#455,.T.);
#453 = VERTEX_POINT('',#454);
#454 = CARTESIAN_POINT('',(15.029717279365,51.791065898863,4.75));
#455 = CIRCLE('',#456,2.5);
#456 = AXIS2_PLACEMENT_3D('',#457,#458,#459);
#457 = CARTESIAN_POINT('',(13.030505633147,53.292116462177,4.75));
#458 = DIRECTION('',(0.,-0.,1.));
#459 = DIRECTION('',(0.600420225326,0.799684658487,0.));
#460 = ORIENTED_EDGE('',*,*,#461,.T.);
#461 = EDGE_CURVE('',#453,#432,#462,.T.);
#462 = CIRCLE('',#463,2.5);
#463 = AXIS2_PLACEMENT_3D('',#464,#465,#466);
#464 = CARTESIAN_POINT('',(13.030505633147,53.292116462177,4.75));
#465 = DIRECTION('',(0.,-0.,1.));
#466 = DIRECTION('',(0.600420225326,0.799684658487,0.));
#467 = CYLINDRICAL_SURFACE('',#468,2.5);
#468 = AXIS2_PLACEMENT_3D('',#469,#470,#471);
#469 = CARTESIAN_POINT('',(13.030505633147,53.292116462177,4.75));
#470 = DIRECTION('',(0.,0.,1.));
#471 = DIRECTION('',(0.600420225326,0.799684658487,0.));
#472 = ADVANCED_FACE('',(#473),#485,.T.);
#473 = FACE_BOUND('',#474,.T.);
#474 = EDGE_LOOP('',(#475,#476,#477,#478));
#475 = ORIENTED_EDGE('',*,*,#373,.T.);
#476 = ORIENTED_EDGE('',*,*,#398,.F.);
#477 = ORIENTED_EDGE('',*,*,#331,.F.);
#478 = ORIENTED_EDGE('',*,*,#479,.T.);
#479 = EDGE_CURVE('',#322,#374,#480,.T.);
#480 = CIRCLE('',#481,5.);
#481 = AXIS2_PLACEMENT_3D('',#482,#483,#484);
#482 = CARTESIAN_POINT('',(13.030505633147,53.292116462177,4.75));
#483 = DIRECTION('',(0.,-0.,1.));
#484 = DIRECTION('',(0.600420225326,0.799684658487,0.));
#485 = CYLINDRICAL_SURFACE('',#486,5.);
#486 = AXIS2_PLACEMENT_3D('',#487,#488,#489);
#487 = CARTESIAN_POINT('',(13.030505633147,53.292116462177,4.75));
#488 = DIRECTION('',(0.,0.,1.));
#489 = DIRECTION('',(0.600420225326,0.799684658487,0.));
#490 = ADVANCED_FACE('',(#491),#507,.F.);
#491 = FACE_BOUND('',#492,.F.);
#492 = EDGE_LOOP('',(#493,#499,#500,#506));
#493 = ORIENTED_EDGE('',*,*,#494,.T.);
#494 = EDGE_CURVE('',#444,#266,#495,.T.);
#495 = LINE('',#496,#497);
#496 = CARTESIAN_POINT('',(17.028928925583,50.290015335548,4.75));
#497 = VECTOR('',#498,1.);
#498 = DIRECTION('',(-0.799684658487,0.600420225326,0.));
#499 = ORIENTED_EDGE('',*,*,#347,.T.);
#500 = ORIENTED_EDGE('',*,*,#501,.T.);
#501 = EDGE_CURVE('',#322,#453,#502,.T.);
#502 = LINE('',#503,#504);
#503 = CARTESIAN_POINT('',(17.028928925583,50.290015335548,4.75));
#504 = VECTOR('',#505,1.);
#505 = DIRECTION('',(-0.799684658487,0.600420225326,0.));
#506 = ORIENTED_EDGE('',*,*,#452,.F.);
#507 = PLANE('',#508);
#508 = AXIS2_PLACEMENT_3D('',#509,#510,#511);
#509 = CARTESIAN_POINT('',(-12.99208234071,10.305782411193,4.75));
#510 = DIRECTION('',(0.,0.,1.));
#511 = DIRECTION('',(0.600420225326,0.799684658487,0.));
#512 = ADVANCED_FACE('',(#513),#521,.F.);
#513 = FACE_BOUND('',#514,.F.);
#514 = EDGE_LOOP('',(#515,#516,#517,#518,#519,#520));
#515 = ORIENTED_EDGE('',*,*,#501,.F.);
#516 = ORIENTED_EDGE('',*,*,#479,.T.);
#517 = ORIENTED_EDGE('',*,*,#381,.T.);
#518 = ORIENTED_EDGE('',*,*,#494,.F.);
#519 = ORIENTED_EDGE('',*,*,#443,.F.);
#520 = ORIENTED_EDGE('',*,*,#461,.F.);
#521 = PLANE('',#522);
#522 = AXIS2_PLACEMENT_3D('',#523,#524,#525);
#523 = CARTESIAN_POINT('',(13.030505633147,53.292116462177,4.75));
#524 = DIRECTION('',(0.,0.,1.));
#525 = DIRECTION('',(0.600420225326,0.799684658487,0.));
#526 = MANIFOLD_SOLID_BREP('',#527);
#527 = CLOSED_SHELL('',(#528,#588,#612,#657,#690,#722,#760,#772,#796,
    #828,#852,#871,#904,#938,#983,#1001,#1023));
#528 = ADVANCED_FACE('',(#529),#583,.T.);
#529 = FACE_BOUND('',#530,.T.);
#530 = EDGE_LOOP('',(#531,#541,#550,#559,#567,#576));
#531 = ORIENTED_EDGE('',*,*,#532,.F.);
#532 = EDGE_CURVE('',#533,#535,#537,.T.);
#533 = VERTEX_POINT('',#534);
#534 = CARTESIAN_POINT('',(-4.754493296534,1.277335611728,5.25));
#535 = VERTEX_POINT('',#536);
#536 = CARTESIAN_POINT('',(-5.873891016131,3.512721203827,5.25));
#537 = LINE('',#538,#539);
#538 = CARTESIAN_POINT('',(-4.754493296534,1.277335611728,5.25));
#539 = VECTOR('',#540,1.);
#540 = DIRECTION('',(-0.447759087839,0.894154236839,0.));
#541 = ORIENTED_EDGE('',*,*,#542,.T.);
#542 = EDGE_CURVE('',#533,#543,#545,.T.);
#543 = VERTEX_POINT('',#544);
#544 = CARTESIAN_POINT('',(-2.522517551531,7.986902235119,5.25));
#545 = CIRCLE('',#546,5.);
#546 = AXIS2_PLACEMENT_3D('',#547,#548,#549);
#547 = CARTESIAN_POINT('',(-6.993288735728,5.748106795925,5.25));
#548 = DIRECTION('',(0.,-0.,1.));
#549 = DIRECTION('',(0.894154236839,0.447759087839,0.));
#550 = ORIENTED_EDGE('',*,*,#551,.T.);
#551 = EDGE_CURVE('',#543,#552,#554,.T.);
#552 = VERTEX_POINT('',#553);
#553 = CARTESIAN_POINT('',(-9.232084174922,10.218877980122,5.25));
#554 = CIRCLE('',#555,5.);
#555 = AXIS2_PLACEMENT_3D('',#556,#557,#558);
#556 = CARTESIAN_POINT('',(-6.993288735728,5.748106795925,5.25));
#557 = DIRECTION('',(0.,-0.,1.));
#558 = DIRECTION('',(0.894154236839,0.447759087839,0.));
#559 = ORIENTED_EDGE('',*,*,#560,.F.);
#560 = EDGE_CURVE('',#561,#552,#563,.T.);
#561 = VERTEX_POINT('',#562);
#562 = CARTESIAN_POINT('',(-8.112686455325,7.983492388024,5.25));
#563 = LINE('',#564,#565);
#564 = CARTESIAN_POINT('',(-4.754493296534,1.277335611728,5.25));
#565 = VECTOR('',#566,1.);
#566 = DIRECTION('',(-0.447759087839,0.894154236839,0.));
#567 = ORIENTED_EDGE('',*,*,#568,.F.);
#568 = EDGE_CURVE('',#569,#561,#571,.T.);
#569 = VERTEX_POINT('',#570);
#570 = CARTESIAN_POINT('',(-4.75790314363,6.867504515522,5.25));
#571 = CIRCLE('',#572,2.5);
#572 = AXIS2_PLACEMENT_3D('',#573,#574,#575);
#573 = CARTESIAN_POINT('',(-6.993288735728,5.748106795925,5.25));
#574 = DIRECTION('',(0.,-0.,1.));
#575 = DIRECTION('',(0.894154236839,0.447759087839,0.));
#576 = ORIENTED_EDGE('',*,*,#577,.F.);
#577 = EDGE_CURVE('',#535,#569,#578,.T.);
#578 = CIRCLE('',#579,2.5);
#579 = AXIS2_PLACEMENT_3D('',#580,#581,#582);
#580 = CARTESIAN_POINT('',(-6.993288735728,5.748106795925,5.25));
#581 = DIRECTION('',(0.,-0.,1.));
#582 = DIRECTION('',(0.894154236839,0.447759087839,0.));
#583 = PLANE('',#584);
#584 = AXIS2_PLACEMENT_3D('',#585,#586,#587);
#585 = CARTESIAN_POINT('',(-4.754493296534,1.277335611728,5.25));
#586 = DIRECTION('',(0.,0.,1.));
#587 = DIRECTION('',(0.894154236839,0.447759087839,0.));
#588 = ADVANCED_FACE('',(#589),#607,.T.);
#589 = FACE_BOUND('',#590,.T.);
#590 = EDGE_LOOP('',(#591,#598,#599,#606));
#591 = ORIENTED_EDGE('',*,*,#592,.T.);
#592 = EDGE_CURVE('',#552,#533,#593,.T.);
#593 = CIRCLE('',#594,5.);
#594 = AXIS2_PLACEMENT_3D('',#595,#596,#597);
#595 = CARTESIAN_POINT('',(-6.993288735728,5.748106795925,5.25));
#596 = DIRECTION('',(0.,-0.,1.));
#597 = DIRECTION('',(0.894154236839,0.447759087839,0.));
#598 = ORIENTED_EDGE('',*,*,#532,.T.);
#599 = ORIENTED_EDGE('',*,*,#600,.F.);
#600 = EDGE_CURVE('',#561,#535,#601,.T.);
#601 = CIRCLE('',#602,2.5);
#602 = AXIS2_PLACEMENT_3D('',#603,#604,#605);
#603 = CARTESIAN_POINT('',(-6.993288735728,5.748106795925,5.25));
#604 = DIRECTION('',(0.,-0.,1.));
#605 = DIRECTION('',(0.894154236839,0.447759087839,0.));
#606 = ORIENTED_EDGE('',*,*,#560,.T.);
#607 = PLANE('',#608);
#608 = AXIS2_PLACEMENT_3D('',#609,#610,#611);
#609 = CARTESIAN_POINT('',(-6.993288735728,5.748106795925,5.25));
#610 = DIRECTION('',(0.,0.,1.));
#611 = DIRECTION('',(0.894154236839,0.447759087839,0.));
#612 = ADVANCED_FACE('',(#613),#652,.F.);
#613 = FACE_BOUND('',#614,.F.);
#614 = EDGE_LOOP('',(#615,#623,#624,#625,#626,#627,#636,#645));
#615 = ORIENTED_EDGE('',*,*,#616,.T.);
#616 = EDGE_CURVE('',#617,#569,#619,.T.);
#617 = VERTEX_POINT('',#618);
#618 = CARTESIAN_POINT('',(-4.75790314363,6.867504515522,2.75));
#619 = LINE('',#620,#621);
#620 = CARTESIAN_POINT('',(-4.75790314363,6.867504515522,2.75));
#621 = VECTOR('',#622,1.);
#622 = DIRECTION('',(0.,0.,1.));
#623 = ORIENTED_EDGE('',*,*,#577,.F.);
#624 = ORIENTED_EDGE('',*,*,#600,.F.);
#625 = ORIENTED_EDGE('',*,*,#568,.F.);
#626 = ORIENTED_EDGE('',*,*,#616,.F.);
#627 = ORIENTED_EDGE('',*,*,#628,.T.);
#628 = EDGE_CURVE('',#617,#629,#631,.T.);
#629 = VERTEX_POINT('',#630);
#630 = CARTESIAN_POINT('',(-8.112686455325,7.983492388024,2.75));
#631 = CIRCLE('',#632,2.5);
#632 = AXIS2_PLACEMENT_3D('',#633,#634,#635);
#633 = CARTESIAN_POINT('',(-6.993288735728,5.748106795925,2.75));
#634 = DIRECTION('',(0.,-0.,1.));
#635 = DIRECTION('',(0.894154236839,0.447759087839,0.));
#636 = ORIENTED_EDGE('',*,*,#637,.T.);
#637 = EDGE_CURVE('',#629,#638,#640,.T.);
#638 = VERTEX_POINT('',#639);
#639 = CARTESIAN_POINT('',(-5.873891016131,3.512721203827,2.75));
#640 = CIRCLE('',#641,2.5);
#641 = AXIS2_PLACEMENT_3D('',#642,#643,#644);
#642 = CARTESIAN_POINT('',(-6.993288735728,5.748106795925,2.75));
#643 = DIRECTION('',(0.,-0.,1.));
#644 = DIRECTION('',(0.894154236839,0.447759087839,0.));
#645 = ORIENTED_EDGE('',*,*,#646,.T.);
#646 = EDGE_CURVE('',#638,#617,#647,.T.);
#647 = CIRCLE('',#648,2.5);
#648 = AXIS2_PLACEMENT_3D('',#649,#650,#651);
#649 = CARTESIAN_POINT('',(-6.993288735728,5.748106795925,2.75));
#650 = DIRECTION('',(0.,-0.,1.));
#651 = DIRECTION('',(0.894154236839,0.447759087839,0.));
#652 = CYLINDRICAL_SURFACE('',#653,2.5);
#653 = AXIS2_PLACEMENT_3D('',#654,#655,#656);
#654 = CARTESIAN_POINT('',(-6.993288735728,5.748106795925,2.75));
#655 = DIRECTION('',(0.,0.,1.));
#656 = DIRECTION('',(0.894154236839,0.447759087839,0.));
#657 = ADVANCED_FACE('',(#658),#685,.T.);
#658 = FACE_BOUND('',#659,.T.);
#659 = EDGE_LOOP('',(#660,#661,#669,#678,#684));
#660 = ORIENTED_EDGE('',*,*,#542,.F.);
#661 = ORIENTED_EDGE('',*,*,#662,.T.);
#662 = EDGE_CURVE('',#533,#663,#665,.T.);
#663 = VERTEX_POINT('',#664);
#664 = CARTESIAN_POINT('',(35.232084174922,21.301122019878,5.25));
#665 = LINE('',#666,#667);
#666 = CARTESIAN_POINT('',(-4.754493296534,1.277335611728,5.25));
#667 = VECTOR('',#668,1.);
#668 = DIRECTION('',(0.894154236839,0.447759087839,0.));
#669 = ORIENTED_EDGE('',*,*,#670,.F.);
#670 = EDGE_CURVE('',#671,#663,#673,.T.);
#671 = VERTEX_POINT('',#672);
#672 = CARTESIAN_POINT('',(30.754493296534,30.242664388272,5.25));
#673 = CIRCLE('',#674,5.);
#674 = AXIS2_PLACEMENT_3D('',#675,#676,#677);
#675 = CARTESIAN_POINT('',(32.993288735728,25.771893204075,5.25));
#676 = DIRECTION('',(0.,-0.,1.));
#677 = DIRECTION('',(0.894154236839,0.447759087839,0.));
#678 = ORIENTED_EDGE('',*,*,#679,.F.);
#679 = EDGE_CURVE('',#552,#671,#680,.T.);
#680 = LINE('',#681,#682);
#681 = CARTESIAN_POINT('',(-9.232084174922,10.218877980122,5.25));
#682 = VECTOR('',#683,1.);
#683 = DIRECTION('',(0.894154236839,0.447759087839,0.));
#684 = ORIENTED_EDGE('',*,*,#551,.F.);
#685 = PLANE('',#686);
#686 = AXIS2_PLACEMENT_3D('',#687,#688,#689);
#687 = CARTESIAN_POINT('',(-4.754493296534,1.277335611728,5.25));
#688 = DIRECTION('',(0.,0.,1.));
#689 = DIRECTION('',(0.894154236839,0.447759087839,0.));
#690 = ADVANCED_FACE('',(#691),#717,.T.);
#691 = FACE_BOUND('',#692,.T.);
#692 = EDGE_LOOP('',(#693,#694,#702,#711));
#693 = ORIENTED_EDGE('',*,*,#592,.F.);
#694 = ORIENTED_EDGE('',*,*,#695,.F.);
#695 = EDGE_CURVE('',#696,#552,#698,.T.);
#696 = VERTEX_POINT('',#697);
#697 = CARTESIAN_POINT('',(-9.232084174922,10.218877980122,2.75));
#698 = LINE('',#699,#700);
#699 = CARTESIAN_POINT('',(-9.232084174922,10.218877980122,2.75));
#700 = VECTOR('',#701,1.);
#701 = DIRECTION('',(0.,0.,1.));
#702 = ORIENTED_EDGE('',*,*,#703,.T.);
#703 = EDGE_CURVE('',#696,#704,#706,.T.);
#704 = VERTEX_POINT('',#705);
#705 = CARTESIAN_POINT('',(-4.754493296534,1.277335611728,2.75));
#706 = CIRCLE('',#707,5.);
#707 = AXIS2_PLACEMENT_3D('',#708,#709,#710);
#708 = CARTESIAN_POINT('',(-6.993288735728,5.748106795925,2.75));
#709 = DIRECTION('',(0.,-0.,1.));
#710 = DIRECTION('',(0.894154236839,0.447759087839,0.));
#711 = ORIENTED_EDGE('',*,*,#712,.T.);
#712 = EDGE_CURVE('',#704,#533,#713,.T.);
#713 = LINE('',#714,#715);
#714 = CARTESIAN_POINT('',(-4.754493296534,1.277335611728,2.75));
#715 = VECTOR('',#716,1.);
#716 = DIRECTION('',(0.,0.,1.));
#717 = CYLINDRICAL_SURFACE('',#718,5.);
#718 = AXIS2_PLACEMENT_3D('',#719,#720,#721);
#719 = CARTESIAN_POINT('',(-6.993288735728,5.748106795925,2.75));
#720 = DIRECTION('',(0.,0.,1.));
#721 = DIRECTION('',(0.894154236839,0.447759087839,0.));
#722 = ADVANCED_FACE('',(#723),#755,.F.);
#723 = FACE_BOUND('',#724,.F.);
#724 = EDGE_LOOP('',(#725,#731,#740,#747,#753,#754));
#725 = ORIENTED_EDGE('',*,*,#726,.F.);
#726 = EDGE_CURVE('',#704,#638,#727,.T.);
#727 = LINE('',#728,#729);
#728 = CARTESIAN_POINT('',(-4.754493296534,1.277335611728,2.75));
#729 = VECTOR('',#730,1.);
#730 = DIRECTION('',(-0.447759087839,0.894154236839,0.));
#731 = ORIENTED_EDGE('',*,*,#732,.T.);
#732 = EDGE_CURVE('',#704,#733,#735,.T.);
#733 = VERTEX_POINT('',#734);
#734 = CARTESIAN_POINT('',(-2.522517551531,7.986902235119,2.75));
#735 = CIRCLE('',#736,5.);
#736 = AXIS2_PLACEMENT_3D('',#737,#738,#739);
#737 = CARTESIAN_POINT('',(-6.993288735728,5.748106795925,2.75));
#738 = DIRECTION('',(0.,-0.,1.));
#739 = DIRECTION('',(0.894154236839,0.447759087839,0.));
#740 = ORIENTED_EDGE('',*,*,#741,.T.);
#741 = EDGE_CURVE('',#733,#696,#742,.T.);
#742 = CIRCLE('',#743,5.);
#743 = AXIS2_PLACEMENT_3D('',#744,#745,#746);
#744 = CARTESIAN_POINT('',(-6.993288735728,5.748106795925,2.75));
#745 = DIRECTION('',(0.,-0.,1.));
#746 = DIRECTION('',(0.894154236839,0.447759087839,0.));
#747 = ORIENTED_EDGE('',*,*,#748,.F.);
#748 = EDGE_CURVE('',#629,#696,#749,.T.);
#749 = LINE('',#750,#751);
#750 = CARTESIAN_POINT('',(-4.754493296534,1.277335611728,2.75));
#751 = VECTOR('',#752,1.);
#752 = DIRECTION('',(-0.447759087839,0.894154236839,0.));
#753 = ORIENTED_EDGE('',*,*,#628,.F.);
#754 = ORIENTED_EDGE('',*,*,#646,.F.);
#755 = PLANE('',#756);
#756 = AXIS2_PLACEMENT_3D('',#757,#758,#759);
#757 = CARTESIAN_POINT('',(-4.754493296534,1.277335611728,2.75));
#758 = DIRECTION('',(0.,0.,1.));
#759 = DIRECTION('',(0.894154236839,0.447759087839,0.));
#760 = ADVANCED_FACE('',(#761),#767,.F.);
#761 = FACE_BOUND('',#762,.F.);
#762 = EDGE_LOOP('',(#763,#764,#765,#766));
#763 = ORIENTED_EDGE('',*,*,#703,.T.);
#764 = ORIENTED_EDGE('',*,*,#726,.T.);
#765 = ORIENTED_EDGE('',*,*,#637,.F.);
#766 = ORIENTED_EDGE('',*,*,#748,.T.);
#767 = PLANE('',#768);
#768 = AXIS2_PLACEMENT_3D('',#769,#770,#771);
#769 = CARTESIAN_POINT('',(-6.993288735728,5.748106795925,2.75));
#770 = DIRECTION('',(0.,0.,1.));
#771 = DIRECTION('',(0.894154236839,0.447759087839,0.));
#772 = ADVANCED_FACE('',(#773),#791,.T.);
#773 = FACE_BOUND('',#774,.T.);
#774 = EDGE_LOOP('',(#775,#783,#784,#785));
#775 = ORIENTED_EDGE('',*,*,#776,.F.);
#776 = EDGE_CURVE('',#696,#777,#779,.T.);
#777 = VERTEX_POINT('',#778);
#778 = CARTESIAN_POINT('',(30.754493296534,30.242664388272,2.75));
#779 = LINE('',#780,#781);
#780 = CARTESIAN_POINT('',(-9.232084174922,10.218877980122,2.75));
#781 = VECTOR('',#782,1.);
#782 = DIRECTION('',(0.894154236839,0.447759087839,0.));
#783 = ORIENTED_EDGE('',*,*,#695,.T.);
#784 = ORIENTED_EDGE('',*,*,#679,.T.);
#785 = ORIENTED_EDGE('',*,*,#786,.F.);
#786 = EDGE_CURVE('',#777,#671,#787,.T.);
#787 = LINE('',#788,#789);
#788 = CARTESIAN_POINT('',(30.754493296534,30.242664388272,2.75));
#789 = VECTOR('',#790,1.);
#790 = DIRECTION('',(0.,0.,1.));
#791 = PLANE('',#792);
#792 = AXIS2_PLACEMENT_3D('',#793,#794,#795);
#793 = CARTESIAN_POINT('',(-9.232084174922,10.218877980122,2.75));
#794 = DIRECTION('',(-0.447759087839,0.894154236839,0.));
#795 = DIRECTION('',(0.,0.,1.));
#796 = ADVANCED_FACE('',(#797),#823,.T.);
#797 = FACE_BOUND('',#798,.T.);
#798 = EDGE_LOOP('',(#799,#807,#808,#816));
#799 = ORIENTED_EDGE('',*,*,#800,.T.);
#800 = EDGE_CURVE('',#801,#671,#803,.T.);
#801 = VERTEX_POINT('',#802);
#802 = CARTESIAN_POINT('',(31.873891016131,28.007278796173,5.25));
#803 = LINE('',#804,#805);
#804 = CARTESIAN_POINT('',(35.232084174922,21.301122019878,5.25));
#805 = VECTOR('',#806,1.);
#806 = DIRECTION('',(-0.447759087839,0.894154236839,0.));
#807 = ORIENTED_EDGE('',*,*,#670,.T.);
#808 = ORIENTED_EDGE('',*,*,#809,.T.);
#809 = EDGE_CURVE('',#663,#810,#812,.T.);
#810 = VERTEX_POINT('',#811);
#811 = CARTESIAN_POINT('',(34.112686455325,23.536507611976,5.25));
#812 = LINE('',#813,#814);
#813 = CARTESIAN_POINT('',(35.232084174922,21.301122019878,5.25));
#814 = VECTOR('',#815,1.);
#815 = DIRECTION('',(-0.447759087839,0.894154236839,0.));
#816 = ORIENTED_EDGE('',*,*,#817,.F.);
#817 = EDGE_CURVE('',#801,#810,#818,.T.);
#818 = CIRCLE('',#819,2.5);
#819 = AXIS2_PLACEMENT_3D('',#820,#821,#822);
#820 = CARTESIAN_POINT('',(32.993288735728,25.771893204075,5.25));
#821 = DIRECTION('',(0.,-0.,1.));
#822 = DIRECTION('',(0.894154236839,0.447759087839,0.));
#823 = PLANE('',#824);
#824 = AXIS2_PLACEMENT_3D('',#825,#826,#827);
#825 = CARTESIAN_POINT('',(-4.754493296534,1.277335611728,5.25));
#826 = DIRECTION('',(0.,0.,1.));
#827 = DIRECTION('',(0.894154236839,0.447759087839,0.));
#828 = ADVANCED_FACE('',(#829),#847,.F.);
#829 = FACE_BOUND('',#830,.F.);
#830 = EDGE_LOOP('',(#831,#839,#840,#841));
#831 = ORIENTED_EDGE('',*,*,#832,.F.);
#832 = EDGE_CURVE('',#704,#833,#835,.T.);
#833 = VERTEX_POINT('',#834);
#834 = CARTESIAN_POINT('',(35.232084174922,21.301122019878,2.75));
#835 = LINE('',#836,#837);
#836 = CARTESIAN_POINT('',(-4.754493296534,1.277335611728,2.75));
#837 = VECTOR('',#838,1.);
#838 = DIRECTION('',(0.894154236839,0.447759087839,0.));
#839 = ORIENTED_EDGE('',*,*,#712,.T.);
#840 = ORIENTED_EDGE('',*,*,#662,.T.);
#841 = ORIENTED_EDGE('',*,*,#842,.F.);
#842 = EDGE_CURVE('',#833,#663,#843,.T.);
#843 = LINE('',#844,#845);
#844 = CARTESIAN_POINT('',(35.232084174922,21.301122019878,2.75));
#845 = VECTOR('',#846,1.);
#846 = DIRECTION('',(0.,0.,1.));
#847 = PLANE('',#848);
#848 = AXIS2_PLACEMENT_3D('',#849,#850,#851);
#849 = CARTESIAN_POINT('',(-4.754493296534,1.277335611728,2.75));
#850 = DIRECTION('',(-0.447759087839,0.894154236839,0.));
#851 = DIRECTION('',(0.,0.,1.));
#852 = ADVANCED_FACE('',(#853),#866,.F.);
#853 = FACE_BOUND('',#854,.F.);
#854 = EDGE_LOOP('',(#855,#856,#857,#864,#865));
#855 = ORIENTED_EDGE('',*,*,#732,.F.);
#856 = ORIENTED_EDGE('',*,*,#832,.T.);
#857 = ORIENTED_EDGE('',*,*,#858,.F.);
#858 = EDGE_CURVE('',#777,#833,#859,.T.);
#859 = CIRCLE('',#860,5.);
#860 = AXIS2_PLACEMENT_3D('',#861,#862,#863);
#861 = CARTESIAN_POINT('',(32.993288735728,25.771893204075,2.75));
#862 = DIRECTION('',(0.,-0.,1.));
#863 = DIRECTION('',(0.894154236839,0.447759087839,0.));
#864 = ORIENTED_EDGE('',*,*,#776,.F.);
#865 = ORIENTED_EDGE('',*,*,#741,.F.);
#866 = PLANE('',#867);
#867 = AXIS2_PLACEMENT_3D('',#868,#869,#870);
#868 = CARTESIAN_POINT('',(-4.754493296534,1.277335611728,2.75));
#869 = DIRECTION('',(0.,0.,1.));
#870 = DIRECTION('',(0.894154236839,0.447759087839,0.));
#871 = ADVANCED_FACE('',(#872),#899,.T.);
#872 = FACE_BOUND('',#873,.T.);
#873 = EDGE_LOOP('',(#874,#883,#891,#898));
#874 = ORIENTED_EDGE('',*,*,#875,.F.);
#875 = EDGE_CURVE('',#876,#671,#878,.T.);
#876 = VERTEX_POINT('',#877);
#877 = CARTESIAN_POINT('',(37.464059919925,28.010688643269,5.25));
#878 = CIRCLE('',#879,5.);
#879 = AXIS2_PLACEMENT_3D('',#880,#881,#882);
#880 = CARTESIAN_POINT('',(32.993288735728,25.771893204075,5.25));
#881 = DIRECTION('',(0.,-0.,1.));
#882 = DIRECTION('',(0.894154236839,0.447759087839,0.));
#883 = ORIENTED_EDGE('',*,*,#884,.F.);
#884 = EDGE_CURVE('',#885,#876,#887,.T.);
#885 = VERTEX_POINT('',#886);
#886 = CARTESIAN_POINT('',(37.464059919925,28.010688643269,2.75));
#887 = LINE('',#888,#889);
#888 = CARTESIAN_POINT('',(37.464059919925,28.010688643269,2.75));
#889 = VECTOR('',#890,1.);
#890 = DIRECTION('',(0.,0.,1.));
#891 = ORIENTED_EDGE('',*,*,#892,.T.);
#892 = EDGE_CURVE('',#885,#777,#893,.T.);
#893 = CIRCLE('',#894,5.);
#894 = AXIS2_PLACEMENT_3D('',#895,#896,#897);
#895 = CARTESIAN_POINT('',(32.993288735728,25.771893204075,2.75));
#896 = DIRECTION('',(0.,-0.,1.));
#897 = DIRECTION('',(0.894154236839,0.447759087839,0.));
#898 = ORIENTED_EDGE('',*,*,#786,.T.);
#899 = CYLINDRICAL_SURFACE('',#900,5.);
#900 = AXIS2_PLACEMENT_3D('',#901,#902,#903);
#901 = CARTESIAN_POINT('',(32.993288735728,25.771893204075,2.75));
#902 = DIRECTION('',(0.,0.,1.));
#903 = DIRECTION('',(0.894154236839,0.447759087839,0.));
#904 = ADVANCED_FACE('',(#905),#933,.T.);
#905 = FACE_BOUND('',#906,.T.);
#906 = EDGE_LOOP('',(#907,#908,#915,#916,#917,#926));
#907 = ORIENTED_EDGE('',*,*,#809,.F.);
#908 = ORIENTED_EDGE('',*,*,#909,.T.);
#909 = EDGE_CURVE('',#663,#876,#910,.T.);
#910 = CIRCLE('',#911,5.);
#911 = AXIS2_PLACEMENT_3D('',#912,#913,#914);
#912 = CARTESIAN_POINT('',(32.993288735728,25.771893204075,5.25));
#913 = DIRECTION('',(0.,-0.,1.));
#914 = DIRECTION('',(0.894154236839,0.447759087839,0.));
#915 = ORIENTED_EDGE('',*,*,#875,.T.);
#916 = ORIENTED_EDGE('',*,*,#800,.F.);
#917 = ORIENTED_EDGE('',*,*,#918,.F.);
#918 = EDGE_CURVE('',#919,#801,#921,.T.);
#919 = VERTEX_POINT('',#920);
#920 = CARTESIAN_POINT('',(35.228674327827,26.891290923672,5.25));
#921 = CIRCLE('',#922,2.5);
#922 = AXIS2_PLACEMENT_3D('',#923,#924,#925);
#923 = CARTESIAN_POINT('',(32.993288735728,25.771893204075,5.25));
#924 = DIRECTION('',(0.,-0.,1.));
#925 = DIRECTION('',(0.894154236839,0.447759087839,0.));
#926 = ORIENTED_EDGE('',*,*,#927,.F.);
#927 = EDGE_CURVE('',#810,#919,#928,.T.);
#928 = CIRCLE('',#929,2.5);
#929 = AXIS2_PLACEMENT_3D('',#930,#931,#932);
#930 = CARTESIAN_POINT('',(32.993288735728,25.771893204075,5.25));
#931 = DIRECTION('',(0.,-0.,1.));
#932 = DIRECTION('',(0.894154236839,0.447759087839,0.));
#933 = PLANE('',#934);
#934 = AXIS2_PLACEMENT_3D('',#935,#936,#937);
#935 = CARTESIAN_POINT('',(32.993288735728,25.771893204075,5.25));
#936 = DIRECTION('',(0.,0.,1.));
#937 = DIRECTION('',(0.894154236839,0.447759087839,0.));
#938 = ADVANCED_FACE('',(#939),#978,.F.);
#939 = FACE_BOUND('',#940,.F.);
#940 = EDGE_LOOP('',(#941,#949,#950,#951,#952,#953,#962,#971));
#941 = ORIENTED_EDGE('',*,*,#942,.T.);
#942 = EDGE_CURVE('',#943,#919,#945,.T.);
#943 = VERTEX_POINT('',#944);
#944 = CARTESIAN_POINT('',(35.228674327827,26.891290923672,2.75));
#945 = LINE('',#946,#947);
#946 = CARTESIAN_POINT('',(35.228674327827,26.891290923672,2.75));
#947 = VECTOR('',#948,1.);
#948 = DIRECTION('',(0.,0.,1.));
#949 = ORIENTED_EDGE('',*,*,#927,.F.);
#950 = ORIENTED_EDGE('',*,*,#817,.F.);
#951 = ORIENTED_EDGE('',*,*,#918,.F.);
#952 = ORIENTED_EDGE('',*,*,#942,.F.);
#953 = ORIENTED_EDGE('',*,*,#954,.T.);
#954 = EDGE_CURVE('',#943,#955,#957,.T.);
#955 = VERTEX_POINT('',#956);
#956 = CARTESIAN_POINT('',(31.873891016131,28.007278796173,2.75));
#957 = CIRCLE('',#958,2.5);
#958 = AXIS2_PLACEMENT_3D('',#959,#960,#961);
#959 = CARTESIAN_POINT('',(32.993288735728,25.771893204075,2.75));
#960 = DIRECTION('',(0.,-0.,1.));
#961 = DIRECTION('',(0.894154236839,0.447759087839,0.));
#962 = ORIENTED_EDGE('',*,*,#963,.T.);
#963 = EDGE_CURVE('',#955,#964,#966,.T.);
#964 = VERTEX_POINT('',#965);
#965 = CARTESIAN_POINT('',(34.112686455325,23.536507611976,2.75));
#966 = CIRCLE('',#967,2.5);
#967 = AXIS2_PLACEMENT_3D('',#968,#969,#970);
#968 = CARTESIAN_POINT('',(32.993288735728,25.771893204075,2.75));
#969 = DIRECTION('',(0.,-0.,1.));
#970 = DIRECTION('',(0.894154236839,0.447759087839,0.));
#971 = ORIENTED_EDGE('',*,*,#972,.T.);
#972 = EDGE_CURVE('',#964,#943,#973,.T.);
#973 = CIRCLE('',#974,2.5);
#974 = AXIS2_PLACEMENT_3D('',#975,#976,#977);
#975 = CARTESIAN_POINT('',(32.993288735728,25.771893204075,2.75));
#976 = DIRECTION('',(0.,-0.,1.));
#977 = DIRECTION('',(0.894154236839,0.447759087839,0.));
#978 = CYLINDRICAL_SURFACE('',#979,2.5);
#979 = AXIS2_PLACEMENT_3D('',#980,#981,#982);
#980 = CARTESIAN_POINT('',(32.993288735728,25.771893204075,2.75));
#981 = DIRECTION('',(0.,0.,1.));
#982 = DIRECTION('',(0.894154236839,0.447759087839,0.));
#983 = ADVANCED_FACE('',(#984),#996,.T.);
#984 = FACE_BOUND('',#985,.T.);
#985 = EDGE_LOOP('',(#986,#987,#988,#989));
#986 = ORIENTED_EDGE('',*,*,#884,.T.);
#987 = ORIENTED_EDGE('',*,*,#909,.F.);
#988 = ORIENTED_EDGE('',*,*,#842,.F.);
#989 = ORIENTED_EDGE('',*,*,#990,.T.);
#990 = EDGE_CURVE('',#833,#885,#991,.T.);
#991 = CIRCLE('',#992,5.);
#992 = AXIS2_PLACEMENT_3D('',#993,#994,#995);
#993 = CARTESIAN_POINT('',(32.993288735728,25.771893204075,2.75));
#994 = DIRECTION('',(0.,-0.,1.));
#995 = DIRECTION('',(0.894154236839,0.447759087839,0.));
#996 = CYLINDRICAL_SURFACE('',#997,5.);
#997 = AXIS2_PLACEMENT_3D('',#998,#999,#1000);
#998 = CARTESIAN_POINT('',(32.993288735728,25.771893204075,2.75));
#999 = DIRECTION('',(0.,0.,1.));
#1000 = DIRECTION('',(0.894154236839,0.447759087839,0.));
#1001 = ADVANCED_FACE('',(#1002),#1018,.F.);
#1002 = FACE_BOUND('',#1003,.F.);
#1003 = EDGE_LOOP('',(#1004,#1010,#1011,#1017));
#1004 = ORIENTED_EDGE('',*,*,#1005,.T.);
#1005 = EDGE_CURVE('',#955,#777,#1006,.T.);
#1006 = LINE('',#1007,#1008);
#1007 = CARTESIAN_POINT('',(35.232084174922,21.301122019878,2.75));
#1008 = VECTOR('',#1009,1.);
#1009 = DIRECTION('',(-0.447759087839,0.894154236839,0.));
#1010 = ORIENTED_EDGE('',*,*,#858,.T.);
#1011 = ORIENTED_EDGE('',*,*,#1012,.T.);
#1012 = EDGE_CURVE('',#833,#964,#1013,.T.);
#1013 = LINE('',#1014,#1015);
#1014 = CARTESIAN_POINT('',(35.232084174922,21.301122019878,2.75));
#1015 = VECTOR('',#1016,1.);
#1016 = DIRECTION('',(-0.447759087839,0.894154236839,0.));
#1017 = ORIENTED_EDGE('',*,*,#963,.F.);
#1018 = PLANE('',#1019);
#1019 = AXIS2_PLACEMENT_3D('',#1020,#1021,#1022);
#1020 = CARTESIAN_POINT('',(-4.754493296534,1.277335611728,2.75));
#1021 = DIRECTION('',(0.,0.,1.));
#1022 = DIRECTION('',(0.894154236839,0.447759087839,0.));
#1023 = ADVANCED_FACE('',(#1024),#1032,.F.);
#1024 = FACE_BOUND('',#1025,.F.);
#1025 = EDGE_LOOP('',(#1026,#1027,#1028,#1029,#1030,#1031));
#1026 = ORIENTED_EDGE('',*,*,#1012,.F.);
#1027 = ORIENTED_EDGE('',*,*,#990,.T.);
#1028 = ORIENTED_EDGE('',*,*,#892,.T.);
#1029 = ORIENTED_EDGE('',*,*,#1005,.F.);
#1030 = ORIENTED_EDGE('',*,*,#954,.F.);
#1031 = ORIENTED_EDGE('',*,*,#972,.F.);
#1032 = PLANE('',#1033);
#1033 = AXIS2_PLACEMENT_3D('',#1034,#1035,#1036);
#1034 = CARTESIAN_POINT('',(32.993288735728,25.771893204075,2.75));
#1035 = DIRECTION('',(0.,0.,1.));
#1036 = DIRECTION('',(0.894154236839,0.447759087839,0.));
#1037 = MANIFOLD_SOLID_BREP('',#1038);
#1038 = CLOSED_SHELL('',(#1039,#1099,#1123,#1168,#1212,#1244,#1282,#1294
    ,#1318,#1350,#1374,#1399,#1421,#1454,#1488,#1533,#1551,#1573));
#1039 = ADVANCED_FACE('',(#1040),#1094,.T.);
#1040 = FACE_BOUND('',#1041,.T.);
#1041 = EDGE_LOOP('',(#1042,#1052,#1061,#1070,#1078,#1087));
#1042 = ORIENTED_EDGE('',*,*,#1043,.F.);
#1043 = EDGE_CURVE('',#1044,#1046,#1048,.T.);
#1044 = VERTEX_POINT('',#1045);
#1045 = CARTESIAN_POINT('',(-19.9842175888,9.282082340712,4.25));
#1046 = VERTEX_POINT('',#1047);
#1047 = CARTESIAN_POINT('',(-18.48316702549,11.281293986929,4.25));
#1048 = LINE('',#1049,#1050);
#1049 = CARTESIAN_POINT('',(-19.9842175888,9.282082340712,4.25));
#1050 = VECTOR('',#1051,1.);
#1051 = DIRECTION('',(0.600420225326,0.799684658487,0.));
#1052 = ORIENTED_EDGE('',*,*,#1053,.T.);
#1053 = EDGE_CURVE('',#1044,#1054,#1056,.T.);
#1054 = VERTEX_POINT('',#1055);
#1055 = CARTESIAN_POINT('',(-12.98369316974,10.278404506518,4.25));
#1056 = CIRCLE('',#1057,5.);
#1057 = AXIS2_PLACEMENT_3D('',#1058,#1059,#1060);
#1058 = CARTESIAN_POINT('',(-16.98211646217,13.280505633147,4.25));
#1059 = DIRECTION('',(-0.,0.,1.));
#1060 = DIRECTION('',(0.799684658487,-0.600420225326,0.));
#1061 = ORIENTED_EDGE('',*,*,#1062,.T.);
#1062 = EDGE_CURVE('',#1054,#1063,#1065,.T.);
#1063 = VERTEX_POINT('',#1064);
#1064 = CARTESIAN_POINT('',(-13.98001533554,17.278928925583,4.25));
#1065 = CIRCLE('',#1066,5.);
#1066 = AXIS2_PLACEMENT_3D('',#1067,#1068,#1069);
#1067 = CARTESIAN_POINT('',(-16.98211646217,13.280505633147,4.25));
#1068 = DIRECTION('',(-0.,0.,1.));
#1069 = DIRECTION('',(0.799684658487,-0.600420225326,0.));
#1070 = ORIENTED_EDGE('',*,*,#1071,.F.);
#1071 = EDGE_CURVE('',#1072,#1063,#1074,.T.);
#1072 = VERTEX_POINT('',#1073);
#1073 = CARTESIAN_POINT('',(-15.48106589886,15.279717279365,4.25));
#1074 = LINE('',#1075,#1076);
#1075 = CARTESIAN_POINT('',(-19.9842175888,9.282082340712,4.25));
#1076 = VECTOR('',#1077,1.);
#1077 = DIRECTION('',(0.600420225326,0.799684658487,0.));
#1078 = ORIENTED_EDGE('',*,*,#1079,.F.);
#1079 = EDGE_CURVE('',#1080,#1072,#1082,.T.);
#1080 = VERTEX_POINT('',#1081);
#1081 = CARTESIAN_POINT('',(-14.98290481596,11.779455069832,4.25));
#1082 = CIRCLE('',#1083,2.5);
#1083 = AXIS2_PLACEMENT_3D('',#1084,#1085,#1086);
#1084 = CARTESIAN_POINT('',(-16.98211646217,13.280505633147,4.25));
#1085 = DIRECTION('',(-0.,0.,1.));
#1086 = DIRECTION('',(0.799684658487,-0.600420225326,0.));
#1087 = ORIENTED_EDGE('',*,*,#1088,.F.);
#1088 = EDGE_CURVE('',#1046,#1080,#1089,.T.);
#1089 = CIRCLE('',#1090,2.5);
#1090 = AXIS2_PLACEMENT_3D('',#1091,#1092,#1093);
#1091 = CARTESIAN_POINT('',(-16.98211646217,13.280505633147,4.25));
#1092 = DIRECTION('',(-0.,0.,1.));
#1093 = DIRECTION('',(0.799684658487,-0.600420225326,0.));
#1094 = PLANE('',#1095);
#1095 = AXIS2_PLACEMENT_3D('',#1096,#1097,#1098);
#1096 = CARTESIAN_POINT('',(-19.9842175888,9.282082340712,4.25));
#1097 = DIRECTION('',(0.,0.,1.));
#1098 = DIRECTION('',(0.799684658487,-0.600420225326,0.));
#1099 = ADVANCED_FACE('',(#1100),#1118,.T.);
#1100 = FACE_BOUND('',#1101,.T.);
#1101 = EDGE_LOOP('',(#1102,#1109,#1110,#1117));
#1102 = ORIENTED_EDGE('',*,*,#1103,.T.);
#1103 = EDGE_CURVE('',#1063,#1044,#1104,.T.);
#1104 = CIRCLE('',#1105,5.);
#1105 = AXIS2_PLACEMENT_3D('',#1106,#1107,#1108);
#1106 = CARTESIAN_POINT('',(-16.98211646217,13.280505633147,4.25));
#1107 = DIRECTION('',(-0.,0.,1.));
#1108 = DIRECTION('',(0.799684658487,-0.600420225326,0.));
#1109 = ORIENTED_EDGE('',*,*,#1043,.T.);
#1110 = ORIENTED_EDGE('',*,*,#1111,.F.);
#1111 = EDGE_CURVE('',#1072,#1046,#1112,.T.);
#1112 = CIRCLE('',#1113,2.5);
#1113 = AXIS2_PLACEMENT_3D('',#1114,#1115,#1116);
#1114 = CARTESIAN_POINT('',(-16.98211646217,13.280505633147,4.25));
#1115 = DIRECTION('',(-0.,0.,1.));
#1116 = DIRECTION('',(0.799684658487,-0.600420225326,0.));
#1117 = ORIENTED_EDGE('',*,*,#1071,.T.);
#1118 = PLANE('',#1119);
#1119 = AXIS2_PLACEMENT_3D('',#1120,#1121,#1122);
#1120 = CARTESIAN_POINT('',(-16.98211646217,13.280505633147,4.25));
#1121 = DIRECTION('',(0.,0.,1.));
#1122 = DIRECTION('',(0.799684658487,-0.600420225326,0.));
#1123 = ADVANCED_FACE('',(#1124),#1163,.F.);
#1124 = FACE_BOUND('',#1125,.F.);
#1125 = EDGE_LOOP('',(#1126,#1134,#1135,#1136,#1137,#1138,#1147,#1156));
#1126 = ORIENTED_EDGE('',*,*,#1127,.T.);
#1127 = EDGE_CURVE('',#1128,#1080,#1130,.T.);
#1128 = VERTEX_POINT('',#1129);
#1129 = CARTESIAN_POINT('',(-14.98290481596,11.779455069832,1.75));
#1130 = LINE('',#1131,#1132);
#1131 = CARTESIAN_POINT('',(-14.98290481596,11.779455069832,1.75));
#1132 = VECTOR('',#1133,1.);
#1133 = DIRECTION('',(0.,0.,1.));
#1134 = ORIENTED_EDGE('',*,*,#1088,.F.);
#1135 = ORIENTED_EDGE('',*,*,#1111,.F.);
#1136 = ORIENTED_EDGE('',*,*,#1079,.F.);
#1137 = ORIENTED_EDGE('',*,*,#1127,.F.);
#1138 = ORIENTED_EDGE('',*,*,#1139,.T.);
#1139 = EDGE_CURVE('',#1128,#1140,#1142,.T.);
#1140 = VERTEX_POINT('',#1141);
#1141 = CARTESIAN_POINT('',(-15.48106589886,15.279717279365,1.75));
#1142 = CIRCLE('',#1143,2.5);
#1143 = AXIS2_PLACEMENT_3D('',#1144,#1145,#1146);
#1144 = CARTESIAN_POINT('',(-16.98211646217,13.280505633147,1.75));
#1145 = DIRECTION('',(-0.,0.,1.));
#1146 = DIRECTION('',(0.799684658487,-0.600420225326,0.));
#1147 = ORIENTED_EDGE('',*,*,#1148,.T.);
#1148 = EDGE_CURVE('',#1140,#1149,#1151,.T.);
#1149 = VERTEX_POINT('',#1150);
#1150 = CARTESIAN_POINT('',(-18.48316702549,11.281293986929,1.75));
#1151 = CIRCLE('',#1152,2.5);
#1152 = AXIS2_PLACEMENT_3D('',#1153,#1154,#1155);
#1153 = CARTESIAN_POINT('',(-16.98211646217,13.280505633147,1.75));
#1154 = DIRECTION('',(-0.,0.,1.));
#1155 = DIRECTION('',(0.799684658487,-0.600420225326,0.));
#1156 = ORIENTED_EDGE('',*,*,#1157,.T.);
#1157 = EDGE_CURVE('',#1149,#1128,#1158,.T.);
#1158 = CIRCLE('',#1159,2.5);
#1159 = AXIS2_PLACEMENT_3D('',#1160,#1161,#1162);
#1160 = CARTESIAN_POINT('',(-16.98211646217,13.280505633147,1.75));
#1161 = DIRECTION('',(-0.,0.,1.));
#1162 = DIRECTION('',(0.799684658487,-0.600420225326,0.));
#1163 = CYLINDRICAL_SURFACE('',#1164,2.5);
#1164 = AXIS2_PLACEMENT_3D('',#1165,#1166,#1167);
#1165 = CARTESIAN_POINT('',(-16.98211646217,13.280505633147,1.75));
#1166 = DIRECTION('',(0.,0.,1.));
#1167 = DIRECTION('',(0.799684658487,-0.600420225326,0.));
#1168 = ADVANCED_FACE('',(#1169,#1196),#1207,.T.);
#1169 = FACE_BOUND('',#1170,.T.);
#1170 = EDGE_LOOP('',(#1171,#1172,#1180,#1189,#1195));
#1171 = ORIENTED_EDGE('',*,*,#1053,.F.);
#1172 = ORIENTED_EDGE('',*,*,#1173,.T.);
#1173 = EDGE_CURVE('',#1044,#1174,#1176,.T.);
#1174 = VERTEX_POINT('',#1175);
#1175 = CARTESIAN_POINT('',(20.000015335548,-20.73892892558,4.25));
#1176 = LINE('',#1177,#1178);
#1177 = CARTESIAN_POINT('',(-19.9842175888,9.282082340712,4.25));
#1178 = VECTOR('',#1179,1.);
#1179 = DIRECTION('',(0.799684658487,-0.600420225326,0.));
#1180 = ORIENTED_EDGE('',*,*,#1181,.F.);
#1181 = EDGE_CURVE('',#1182,#1174,#1184,.T.);
#1182 = VERTEX_POINT('',#1183);
#1183 = CARTESIAN_POINT('',(26.004217588807,-12.74208234071,4.25));
#1184 = CIRCLE('',#1185,5.);
#1185 = AXIS2_PLACEMENT_3D('',#1186,#1187,#1188);
#1186 = CARTESIAN_POINT('',(23.002116462177,-16.74050563314,4.25));
#1187 = DIRECTION('',(-0.,0.,1.));
#1188 = DIRECTION('',(0.799684658487,-0.600420225326,0.));
#1189 = ORIENTED_EDGE('',*,*,#1190,.F.);
#1190 = EDGE_CURVE('',#1063,#1182,#1191,.T.);
#1191 = LINE('',#1192,#1193);
#1192 = CARTESIAN_POINT('',(-13.98001533554,17.278928925583,4.25));
#1193 = VECTOR('',#1194,1.);
#1194 = DIRECTION('',(0.799684658487,-0.600420225326,0.));
#1195 = ORIENTED_EDGE('',*,*,#1062,.F.);
#1196 = FACE_BOUND('',#1197,.T.);
#1197 = EDGE_LOOP('',(#1198));
#1198 = ORIENTED_EDGE('',*,*,#1199,.F.);
#1199 = EDGE_CURVE('',#1200,#1200,#1202,.T.);
#1200 = VERTEX_POINT('',#1201);
#1201 = CARTESIAN_POINT('',(-4.986846584871,4.274202253259,4.25));
#1202 = CIRCLE('',#1203,2.5);
#1203 = AXIS2_PLACEMENT_3D('',#1204,#1205,#1206);
#1204 = CARTESIAN_POINT('',(-6.986058231089,5.775252816574,4.25));
#1205 = DIRECTION('',(-0.,0.,1.));
#1206 = DIRECTION('',(0.799684658487,-0.600420225326,0.));
#1207 = PLANE('',#1208);
#1208 = AXIS2_PLACEMENT_3D('',#1209,#1210,#1211);
#1209 = CARTESIAN_POINT('',(-19.9842175888,9.282082340712,4.25));
#1210 = DIRECTION('',(0.,0.,1.));
#1211 = DIRECTION('',(0.799684658487,-0.600420225326,0.));
#1212 = ADVANCED_FACE('',(#1213),#1239,.T.);
#1213 = FACE_BOUND('',#1214,.T.);
#1214 = EDGE_LOOP('',(#1215,#1216,#1224,#1233));
#1215 = ORIENTED_EDGE('',*,*,#1103,.F.);
#1216 = ORIENTED_EDGE('',*,*,#1217,.F.);
#1217 = EDGE_CURVE('',#1218,#1063,#1220,.T.);
#1218 = VERTEX_POINT('',#1219);
#1219 = CARTESIAN_POINT('',(-13.98001533554,17.278928925583,1.75));
#1220 = LINE('',#1221,#1222);
#1221 = CARTESIAN_POINT('',(-13.98001533554,17.278928925583,1.75));
#1222 = VECTOR('',#1223,1.);
#1223 = DIRECTION('',(0.,0.,1.));
#1224 = ORIENTED_EDGE('',*,*,#1225,.T.);
#1225 = EDGE_CURVE('',#1218,#1226,#1228,.T.);
#1226 = VERTEX_POINT('',#1227);
#1227 = CARTESIAN_POINT('',(-19.9842175888,9.282082340712,1.75));
#1228 = CIRCLE('',#1229,5.);
#1229 = AXIS2_PLACEMENT_3D('',#1230,#1231,#1232);
#1230 = CARTESIAN_POINT('',(-16.98211646217,13.280505633147,1.75));
#1231 = DIRECTION('',(-0.,0.,1.));
#1232 = DIRECTION('',(0.799684658487,-0.600420225326,0.));
#1233 = ORIENTED_EDGE('',*,*,#1234,.T.);
#1234 = EDGE_CURVE('',#1226,#1044,#1235,.T.);
#1235 = LINE('',#1236,#1237);
#1236 = CARTESIAN_POINT('',(-19.9842175888,9.282082340712,1.75));
#1237 = VECTOR('',#1238,1.);
#1238 = DIRECTION('',(0.,0.,1.));
#1239 = CYLINDRICAL_SURFACE('',#1240,5.);
#1240 = AXIS2_PLACEMENT_3D('',#1241,#1242,#1243);
#1241 = CARTESIAN_POINT('',(-16.98211646217,13.280505633147,1.75));
#1242 = DIRECTION('',(0.,0.,1.));
#1243 = DIRECTION('',(0.799684658487,-0.600420225326,0.));
#1244 = ADVANCED_FACE('',(#1245),#1277,.F.);
#1245 = FACE_BOUND('',#1246,.F.);
#1246 = EDGE_LOOP('',(#1247,#1253,#1262,#1269,#1275,#1276));
#1247 = ORIENTED_EDGE('',*,*,#1248,.F.);
#1248 = EDGE_CURVE('',#1226,#1149,#1249,.T.);
#1249 = LINE('',#1250,#1251);
#1250 = CARTESIAN_POINT('',(-19.9842175888,9.282082340712,1.75));
#1251 = VECTOR('',#1252,1.);
#1252 = DIRECTION('',(0.600420225326,0.799684658487,0.));
#1253 = ORIENTED_EDGE('',*,*,#1254,.T.);
#1254 = EDGE_CURVE('',#1226,#1255,#1257,.T.);
#1255 = VERTEX_POINT('',#1256);
#1256 = CARTESIAN_POINT('',(-12.98369316974,10.278404506518,1.75));
#1257 = CIRCLE('',#1258,5.);
#1258 = AXIS2_PLACEMENT_3D('',#1259,#1260,#1261);
#1259 = CARTESIAN_POINT('',(-16.98211646217,13.280505633147,1.75));
#1260 = DIRECTION('',(-0.,0.,1.));
#1261 = DIRECTION('',(0.799684658487,-0.600420225326,0.));
#1262 = ORIENTED_EDGE('',*,*,#1263,.T.);
#1263 = EDGE_CURVE('',#1255,#1218,#1264,.T.);
#1264 = CIRCLE('',#1265,5.);
#1265 = AXIS2_PLACEMENT_3D('',#1266,#1267,#1268);
#1266 = CARTESIAN_POINT('',(-16.98211646217,13.280505633147,1.75));
#1267 = DIRECTION('',(-0.,0.,1.));
#1268 = DIRECTION('',(0.799684658487,-0.600420225326,0.));
#1269 = ORIENTED_EDGE('',*,*,#1270,.F.);
#1270 = EDGE_CURVE('',#1140,#1218,#1271,.T.);
#1271 = LINE('',#1272,#1273);
#1272 = CARTESIAN_POINT('',(-19.9842175888,9.282082340712,1.75));
#1273 = VECTOR('',#1274,1.);
#1274 = DIRECTION('',(0.600420225326,0.799684658487,0.));
#1275 = ORIENTED_EDGE('',*,*,#1139,.F.);
#1276 = ORIENTED_EDGE('',*,*,#1157,.F.);
#1277 = PLANE('',#1278);
#1278 = AXIS2_PLACEMENT_3D('',#1279,#1280,#1281);
#1279 = CARTESIAN_POINT('',(-19.9842175888,9.282082340712,1.75));
#1280 = DIRECTION('',(0.,0.,1.));
#1281 = DIRECTION('',(0.799684658487,-0.600420225326,0.));
#1282 = ADVANCED_FACE('',(#1283),#1289,.F.);
#1283 = FACE_BOUND('',#1284,.F.);
#1284 = EDGE_LOOP('',(#1285,#1286,#1287,#1288));
#1285 = ORIENTED_EDGE('',*,*,#1225,.T.);
#1286 = ORIENTED_EDGE('',*,*,#1248,.T.);
#1287 = ORIENTED_EDGE('',*,*,#1148,.F.);
#1288 = ORIENTED_EDGE('',*,*,#1270,.T.);
#1289 = PLANE('',#1290);
#1290 = AXIS2_PLACEMENT_3D('',#1291,#1292,#1293);
#1291 = CARTESIAN_POINT('',(-16.98211646217,13.280505633147,1.75));
#1292 = DIRECTION('',(0.,0.,1.));
#1293 = DIRECTION('',(0.799684658487,-0.600420225326,0.));
#1294 = ADVANCED_FACE('',(#1295),#1313,.F.);
#1295 = FACE_BOUND('',#1296,.F.);
#1296 = EDGE_LOOP('',(#1297,#1305,#1306,#1307));
#1297 = ORIENTED_EDGE('',*,*,#1298,.F.);
#1298 = EDGE_CURVE('',#1226,#1299,#1301,.T.);
#1299 = VERTEX_POINT('',#1300);
#1300 = CARTESIAN_POINT('',(20.000015335548,-20.73892892558,1.75));
#1301 = LINE('',#1302,#1303);
#1302 = CARTESIAN_POINT('',(-19.9842175888,9.282082340712,1.75));
#1303 = VECTOR('',#1304,1.);
#1304 = DIRECTION('',(0.799684658487,-0.600420225326,0.));
#1305 = ORIENTED_EDGE('',*,*,#1234,.T.);
#1306 = ORIENTED_EDGE('',*,*,#1173,.T.);
#1307 = ORIENTED_EDGE('',*,*,#1308,.F.);
#1308 = EDGE_CURVE('',#1299,#1174,#1309,.T.);
#1309 = LINE('',#1310,#1311);
#1310 = CARTESIAN_POINT('',(20.000015335548,-20.73892892558,1.75));
#1311 = VECTOR('',#1312,1.);
#1312 = DIRECTION('',(0.,0.,1.));
#1313 = PLANE('',#1314);
#1314 = AXIS2_PLACEMENT_3D('',#1315,#1316,#1317);
#1315 = CARTESIAN_POINT('',(-19.9842175888,9.282082340712,1.75));
#1316 = DIRECTION('',(0.600420225326,0.799684658487,0.));
#1317 = DIRECTION('',(0.,0.,1.));
#1318 = ADVANCED_FACE('',(#1319),#1345,.T.);
#1319 = FACE_BOUND('',#1320,.T.);
#1320 = EDGE_LOOP('',(#1321,#1329,#1330,#1338));
#1321 = ORIENTED_EDGE('',*,*,#1322,.T.);
#1322 = EDGE_CURVE('',#1323,#1182,#1325,.T.);
#1323 = VERTEX_POINT('',#1324);
#1324 = CARTESIAN_POINT('',(24.503167025492,-14.74129398692,4.25));
#1325 = LINE('',#1326,#1327);
#1326 = CARTESIAN_POINT('',(20.000015335548,-20.73892892558,4.25));
#1327 = VECTOR('',#1328,1.);
#1328 = DIRECTION('',(0.600420225326,0.799684658487,0.));
#1329 = ORIENTED_EDGE('',*,*,#1181,.T.);
#1330 = ORIENTED_EDGE('',*,*,#1331,.T.);
#1331 = EDGE_CURVE('',#1174,#1332,#1334,.T.);
#1332 = VERTEX_POINT('',#1333);
#1333 = CARTESIAN_POINT('',(21.501065898863,-18.73971727936,4.25));
#1334 = LINE('',#1335,#1336);
#1335 = CARTESIAN_POINT('',(20.000015335548,-20.73892892558,4.25));
#1336 = VECTOR('',#1337,1.);
#1337 = DIRECTION('',(0.600420225326,0.799684658487,0.));
#1338 = ORIENTED_EDGE('',*,*,#1339,.F.);
#1339 = EDGE_CURVE('',#1323,#1332,#1340,.T.);
#1340 = CIRCLE('',#1341,2.5);
#1341 = AXIS2_PLACEMENT_3D('',#1342,#1343,#1344);
#1342 = CARTESIAN_POINT('',(23.002116462177,-16.74050563314,4.25));
#1343 = DIRECTION('',(-0.,0.,1.));
#1344 = DIRECTION('',(0.799684658487,-0.600420225326,0.));
#1345 = PLANE('',#1346);
#1346 = AXIS2_PLACEMENT_3D('',#1347,#1348,#1349);
#1347 = CARTESIAN_POINT('',(-19.9842175888,9.282082340712,4.25));
#1348 = DIRECTION('',(0.,0.,1.));
#1349 = DIRECTION('',(0.799684658487,-0.600420225326,0.));
#1350 = ADVANCED_FACE('',(#1351),#1369,.T.);
#1351 = FACE_BOUND('',#1352,.T.);
#1352 = EDGE_LOOP('',(#1353,#1361,#1362,#1363));
#1353 = ORIENTED_EDGE('',*,*,#1354,.F.);
#1354 = EDGE_CURVE('',#1218,#1355,#1357,.T.);
#1355 = VERTEX_POINT('',#1356);
#1356 = CARTESIAN_POINT('',(26.004217588807,-12.74208234071,1.75));
#1357 = LINE('',#1358,#1359);
#1358 = CARTESIAN_POINT('',(-13.98001533554,17.278928925583,1.75));
#1359 = VECTOR('',#1360,1.);
#1360 = DIRECTION('',(0.799684658487,-0.600420225326,0.));
#1361 = ORIENTED_EDGE('',*,*,#1217,.T.);
#1362 = ORIENTED_EDGE('',*,*,#1190,.T.);
#1363 = ORIENTED_EDGE('',*,*,#1364,.F.);
#1364 = EDGE_CURVE('',#1355,#1182,#1365,.T.);
#1365 = LINE('',#1366,#1367);
#1366 = CARTESIAN_POINT('',(26.004217588807,-12.74208234071,1.75));
#1367 = VECTOR('',#1368,1.);
#1368 = DIRECTION('',(0.,0.,1.));
#1369 = PLANE('',#1370);
#1370 = AXIS2_PLACEMENT_3D('',#1371,#1372,#1373);
#1371 = CARTESIAN_POINT('',(-13.98001533554,17.278928925583,1.75));
#1372 = DIRECTION('',(0.600420225326,0.799684658487,0.));
#1373 = DIRECTION('',(0.,0.,1.));
#1374 = ADVANCED_FACE('',(#1375),#1394,.F.);
#1375 = FACE_BOUND('',#1376,.F.);
#1376 = EDGE_LOOP('',(#1377,#1378,#1386,#1393));
#1377 = ORIENTED_EDGE('',*,*,#1199,.F.);
#1378 = ORIENTED_EDGE('',*,*,#1379,.F.);
#1379 = EDGE_CURVE('',#1380,#1200,#1382,.T.);
#1380 = VERTEX_POINT('',#1381);
#1381 = CARTESIAN_POINT('',(-4.986846584871,4.274202253259,1.75));
#1382 = LINE('',#1383,#1384);
#1383 = CARTESIAN_POINT('',(-4.986846584871,4.274202253259,1.75));
#1384 = VECTOR('',#1385,1.);
#1385 = DIRECTION('',(0.,0.,1.));
#1386 = ORIENTED_EDGE('',*,*,#1387,.T.);
#1387 = EDGE_CURVE('',#1380,#1380,#1388,.T.);
#1388 = CIRCLE('',#1389,2.5);
#1389 = AXIS2_PLACEMENT_3D('',#1390,#1391,#1392);
#1390 = CARTESIAN_POINT('',(-6.986058231089,5.775252816574,1.75));
#1391 = DIRECTION('',(-0.,0.,1.));
#1392 = DIRECTION('',(0.799684658487,-0.600420225326,0.));
#1393 = ORIENTED_EDGE('',*,*,#1379,.T.);
#1394 = CYLINDRICAL_SURFACE('',#1395,2.5);
#1395 = AXIS2_PLACEMENT_3D('',#1396,#1397,#1398);
#1396 = CARTESIAN_POINT('',(-6.986058231089,5.775252816574,1.75));
#1397 = DIRECTION('',(0.,0.,1.));
#1398 = DIRECTION('',(0.799684658487,-0.600420225326,0.));
#1399 = ADVANCED_FACE('',(#1400,#1413),#1416,.F.);
#1400 = FACE_BOUND('',#1401,.F.);
#1401 = EDGE_LOOP('',(#1402,#1403,#1404,#1411,#1412));
#1402 = ORIENTED_EDGE('',*,*,#1254,.F.);
#1403 = ORIENTED_EDGE('',*,*,#1298,.T.);
#1404 = ORIENTED_EDGE('',*,*,#1405,.F.);
#1405 = EDGE_CURVE('',#1355,#1299,#1406,.T.);
#1406 = CIRCLE('',#1407,5.);
#1407 = AXIS2_PLACEMENT_3D('',#1408,#1409,#1410);
#1408 = CARTESIAN_POINT('',(23.002116462177,-16.74050563314,1.75));
#1409 = DIRECTION('',(-0.,0.,1.));
#1410 = DIRECTION('',(0.799684658487,-0.600420225326,0.));
#1411 = ORIENTED_EDGE('',*,*,#1354,.F.);
#1412 = ORIENTED_EDGE('',*,*,#1263,.F.);
#1413 = FACE_BOUND('',#1414,.F.);
#1414 = EDGE_LOOP('',(#1415));
#1415 = ORIENTED_EDGE('',*,*,#1387,.F.);
#1416 = PLANE('',#1417);
#1417 = AXIS2_PLACEMENT_3D('',#1418,#1419,#1420);
#1418 = CARTESIAN_POINT('',(-19.9842175888,9.282082340712,1.75));
#1419 = DIRECTION('',(0.,0.,1.));
#1420 = DIRECTION('',(0.799684658487,-0.600420225326,0.));
#1421 = ADVANCED_FACE('',(#1422),#1449,.T.);
#1422 = FACE_BOUND('',#1423,.T.);
#1423 = EDGE_LOOP('',(#1424,#1434,#1441,#1442));
#1424 = ORIENTED_EDGE('',*,*,#1425,.T.);
#1425 = EDGE_CURVE('',#1426,#1428,#1430,.T.);
#1426 = VERTEX_POINT('',#1427);
#1427 = CARTESIAN_POINT('',(27.000539754613,-19.74260675977,1.75));
#1428 = VERTEX_POINT('',#1429);
#1429 = CARTESIAN_POINT('',(27.000539754613,-19.74260675977,4.25));
#1430 = LINE('',#1431,#1432);
#1431 = CARTESIAN_POINT('',(27.000539754613,-19.74260675977,1.75));
#1432 = VECTOR('',#1433,1.);
#1433 = DIRECTION('',(0.,0.,1.));
#1434 = ORIENTED_EDGE('',*,*,#1435,.F.);
#1435 = EDGE_CURVE('',#1174,#1428,#1436,.T.);
#1436 = CIRCLE('',#1437,5.);
#1437 = AXIS2_PLACEMENT_3D('',#1438,#1439,#1440);
#1438 = CARTESIAN_POINT('',(23.002116462177,-16.74050563314,4.25));
#1439 = DIRECTION('',(-0.,0.,1.));
#1440 = DIRECTION('',(0.799684658487,-0.600420225326,0.));
#1441 = ORIENTED_EDGE('',*,*,#1308,.F.);
#1442 = ORIENTED_EDGE('',*,*,#1443,.T.);
#1443 = EDGE_CURVE('',#1299,#1426,#1444,.T.);
#1444 = CIRCLE('',#1445,5.);
#1445 = AXIS2_PLACEMENT_3D('',#1446,#1447,#1448);
#1446 = CARTESIAN_POINT('',(23.002116462177,-16.74050563314,1.75));
#1447 = DIRECTION('',(-0.,0.,1.));
#1448 = DIRECTION('',(0.799684658487,-0.600420225326,0.));
#1449 = CYLINDRICAL_SURFACE('',#1450,5.);
#1450 = AXIS2_PLACEMENT_3D('',#1451,#1452,#1453);
#1451 = CARTESIAN_POINT('',(23.002116462177,-16.74050563314,1.75));
#1452 = DIRECTION('',(0.,0.,1.));
#1453 = DIRECTION('',(0.799684658487,-0.600420225326,0.));
#1454 = ADVANCED_FACE('',(#1455),#1483,.T.);
#1455 = FACE_BOUND('',#1456,.T.);
#1456 = EDGE_LOOP('',(#1457,#1458,#1459,#1466,#1467,#1476));
#1457 = ORIENTED_EDGE('',*,*,#1331,.F.);
#1458 = ORIENTED_EDGE('',*,*,#1435,.T.);
#1459 = ORIENTED_EDGE('',*,*,#1460,.T.);
#1460 = EDGE_CURVE('',#1428,#1182,#1461,.T.);
#1461 = CIRCLE('',#1462,5.);
#1462 = AXIS2_PLACEMENT_3D('',#1463,#1464,#1465);
#1463 = CARTESIAN_POINT('',(23.002116462177,-16.74050563314,4.25));
#1464 = DIRECTION('',(-0.,0.,1.));
#1465 = DIRECTION('',(0.799684658487,-0.600420225326,0.));
#1466 = ORIENTED_EDGE('',*,*,#1322,.F.);
#1467 = ORIENTED_EDGE('',*,*,#1468,.F.);
#1468 = EDGE_CURVE('',#1469,#1323,#1471,.T.);
#1469 = VERTEX_POINT('',#1470);
#1470 = CARTESIAN_POINT('',(25.001328108395,-18.24155619646,4.25));
#1471 = CIRCLE('',#1472,2.5);
#1472 = AXIS2_PLACEMENT_3D('',#1473,#1474,#1475);
#1473 = CARTESIAN_POINT('',(23.002116462177,-16.74050563314,4.25));
#1474 = DIRECTION('',(-0.,0.,1.));
#1475 = DIRECTION('',(0.799684658487,-0.600420225326,0.));
#1476 = ORIENTED_EDGE('',*,*,#1477,.F.);
#1477 = EDGE_CURVE('',#1332,#1469,#1478,.T.);
#1478 = CIRCLE('',#1479,2.5);
#1479 = AXIS2_PLACEMENT_3D('',#1480,#1481,#1482);
#1480 = CARTESIAN_POINT('',(23.002116462177,-16.74050563314,4.25));
#1481 = DIRECTION('',(-0.,0.,1.));
#1482 = DIRECTION('',(0.799684658487,-0.600420225326,0.));
#1483 = PLANE('',#1484);
#1484 = AXIS2_PLACEMENT_3D('',#1485,#1486,#1487);
#1485 = CARTESIAN_POINT('',(23.002116462177,-16.74050563314,4.25));
#1486 = DIRECTION('',(0.,0.,1.));
#1487 = DIRECTION('',(0.799684658487,-0.600420225326,0.));
#1488 = ADVANCED_FACE('',(#1489),#1528,.F.);
#1489 = FACE_BOUND('',#1490,.F.);
#1490 = EDGE_LOOP('',(#1491,#1499,#1500,#1501,#1502,#1503,#1512,#1521));
#1491 = ORIENTED_EDGE('',*,*,#1492,.T.);
#1492 = EDGE_CURVE('',#1493,#1469,#1495,.T.);
#1493 = VERTEX_POINT('',#1494);
#1494 = CARTESIAN_POINT('',(25.001328108395,-18.24155619646,1.75));
#1495 = LINE('',#1496,#1497);
#1496 = CARTESIAN_POINT('',(25.001328108395,-18.24155619646,1.75));
#1497 = VECTOR('',#1498,1.);
#1498 = DIRECTION('',(0.,0.,1.));
#1499 = ORIENTED_EDGE('',*,*,#1477,.F.);
#1500 = ORIENTED_EDGE('',*,*,#1339,.F.);
#1501 = ORIENTED_EDGE('',*,*,#1468,.F.);
#1502 = ORIENTED_EDGE('',*,*,#1492,.F.);
#1503 = ORIENTED_EDGE('',*,*,#1504,.T.);
#1504 = EDGE_CURVE('',#1493,#1505,#1507,.T.);
#1505 = VERTEX_POINT('',#1506);
#1506 = CARTESIAN_POINT('',(24.503167025492,-14.74129398692,1.75));
#1507 = CIRCLE('',#1508,2.5);
#1508 = AXIS2_PLACEMENT_3D('',#1509,#1510,#1511);
#1509 = CARTESIAN_POINT('',(23.002116462177,-16.74050563314,1.75));
#1510 = DIRECTION('',(-0.,0.,1.));
#1511 = DIRECTION('',(0.799684658487,-0.600420225326,0.));
#1512 = ORIENTED_EDGE('',*,*,#1513,.T.);
#1513 = EDGE_CURVE('',#1505,#1514,#1516,.T.);
#1514 = VERTEX_POINT('',#1515);
#1515 = CARTESIAN_POINT('',(21.501065898863,-18.73971727936,1.75));
#1516 = CIRCLE('',#1517,2.5);
#1517 = AXIS2_PLACEMENT_3D('',#1518,#1519,#1520);
#1518 = CARTESIAN_POINT('',(23.002116462177,-16.74050563314,1.75));
#1519 = DIRECTION('',(-0.,0.,1.));
#1520 = DIRECTION('',(0.799684658487,-0.600420225326,0.));
#1521 = ORIENTED_EDGE('',*,*,#1522,.T.);
#1522 = EDGE_CURVE('',#1514,#1493,#1523,.T.);
#1523 = CIRCLE('',#1524,2.5);
#1524 = AXIS2_PLACEMENT_3D('',#1525,#1526,#1527);
#1525 = CARTESIAN_POINT('',(23.002116462177,-16.74050563314,1.75));
#1526 = DIRECTION('',(-0.,0.,1.));
#1527 = DIRECTION('',(0.799684658487,-0.600420225326,0.));
#1528 = CYLINDRICAL_SURFACE('',#1529,2.5);
#1529 = AXIS2_PLACEMENT_3D('',#1530,#1531,#1532);
#1530 = CARTESIAN_POINT('',(23.002116462177,-16.74050563314,1.75));
#1531 = DIRECTION('',(0.,0.,1.));
#1532 = DIRECTION('',(0.799684658487,-0.600420225326,0.));
#1533 = ADVANCED_FACE('',(#1534),#1546,.T.);
#1534 = FACE_BOUND('',#1535,.T.);
#1535 = EDGE_LOOP('',(#1536,#1537,#1538,#1545));
#1536 = ORIENTED_EDGE('',*,*,#1460,.F.);
#1537 = ORIENTED_EDGE('',*,*,#1425,.F.);
#1538 = ORIENTED_EDGE('',*,*,#1539,.T.);
#1539 = EDGE_CURVE('',#1426,#1355,#1540,.T.);
#1540 = CIRCLE('',#1541,5.);
#1541 = AXIS2_PLACEMENT_3D('',#1542,#1543,#1544);
#1542 = CARTESIAN_POINT('',(23.002116462177,-16.74050563314,1.75));
#1543 = DIRECTION('',(-0.,0.,1.));
#1544 = DIRECTION('',(0.799684658487,-0.600420225326,0.));
#1545 = ORIENTED_EDGE('',*,*,#1364,.T.);
#1546 = CYLINDRICAL_SURFACE('',#1547,5.);
#1547 = AXIS2_PLACEMENT_3D('',#1548,#1549,#1550);
#1548 = CARTESIAN_POINT('',(23.002116462177,-16.74050563314,1.75));
#1549 = DIRECTION('',(0.,0.,1.));
#1550 = DIRECTION('',(0.799684658487,-0.600420225326,0.));
#1551 = ADVANCED_FACE('',(#1552),#1568,.F.);
#1552 = FACE_BOUND('',#1553,.F.);
#1553 = EDGE_LOOP('',(#1554,#1560,#1561,#1567));
#1554 = ORIENTED_EDGE('',*,*,#1555,.T.);
#1555 = EDGE_CURVE('',#1505,#1355,#1556,.T.);
#1556 = LINE('',#1557,#1558);
#1557 = CARTESIAN_POINT('',(20.000015335548,-20.73892892558,1.75));
#1558 = VECTOR('',#1559,1.);
#1559 = DIRECTION('',(0.600420225326,0.799684658487,0.));
#1560 = ORIENTED_EDGE('',*,*,#1405,.T.);
#1561 = ORIENTED_EDGE('',*,*,#1562,.T.);
#1562 = EDGE_CURVE('',#1299,#1514,#1563,.T.);
#1563 = LINE('',#1564,#1565);
#1564 = CARTESIAN_POINT('',(20.000015335548,-20.73892892558,1.75));
#1565 = VECTOR('',#1566,1.);
#1566 = DIRECTION('',(0.600420225326,0.799684658487,0.));
#1567 = ORIENTED_EDGE('',*,*,#1513,.F.);
#1568 = PLANE('',#1569);
#1569 = AXIS2_PLACEMENT_3D('',#1570,#1571,#1572);
#1570 = CARTESIAN_POINT('',(-19.9842175888,9.282082340712,1.75));
#1571 = DIRECTION('',(0.,0.,1.));
#1572 = DIRECTION('',(0.799684658487,-0.600420225326,0.));
#1573 = ADVANCED_FACE('',(#1574),#1582,.F.);
#1574 = FACE_BOUND('',#1575,.F.);
#1575 = EDGE_LOOP('',(#1576,#1577,#1578,#1579,#1580,#1581));
#1576 = ORIENTED_EDGE('',*,*,#1562,.F.);
#1577 = ORIENTED_EDGE('',*,*,#1443,.T.);
#1578 = ORIENTED_EDGE('',*,*,#1539,.T.);
#1579 = ORIENTED_EDGE('',*,*,#1555,.F.);
#1580 = ORIENTED_EDGE('',*,*,#1504,.F.);
#1581 = ORIENTED_EDGE('',*,*,#1522,.F.);
#1582 = PLANE('',#1583);
#1583 = AXIS2_PLACEMENT_3D('',#1584,#1585,#1586);
#1584 = CARTESIAN_POINT('',(23.002116462177,-16.74050563314,1.75));
#1585 = DIRECTION('',(0.,0.,1.));
#1586 = DIRECTION('',(0.799684658487,-0.600420225326,0.));
#1587 = ( GEOMETRIC_REPRESENTATION_CONTEXT(3) 
GLOBAL_UNCERTAINTY_ASSIGNED_CONTEXT((#1591)) 
GLOBAL_UNIT_ASSIGNED_CONTEXT((#1588,#1589,#1590)) REPRESENTATION_CONTEXT
('Context #1','3D Context with UNIT and UNCERTAINTY') );
#1588 = ( LENGTH_UNIT() NAMED_UNIT(*) SI_UNIT(.MILLI.,.METRE.) );
#1589 = ( NAMED_UNIT(*) PLANE_ANGLE_UNIT() SI_UNIT($,.RADIAN.) );
#1590 = ( NAMED_UNIT(*) SI_UNIT($,.STERADIAN.) SOLID_ANGLE_UNIT() );
#1591 = UNCERTAINTY_MEASURE_WITH_UNIT(LENGTH_MEASURE(1.E-07),#1588,
  'distance_accuracy_value','confusion accuracy');
#1592 = PRODUCT_RELATED_PRODUCT_CATEGORY('part',$,(#7));
ENDSEC;
END-ISO-10303-21;
